/* XPM */
static char *_afcf146381c4b9b91cc02785c52999fLkq0jZanOni76UMh[] = {
/* columns rows colors chars-per-pixel */
"40 40 150 2 ",
"   c None",
".  c black",
"X  c #010000",
"o  c #010100",
"O  c #000101",
"+  c #010101",
"@  c #030200",
"#  c #030201",
"$  c #010102",
"%  c #020202",
"&  c #020203",
"*  c gray1",
"=  c #040301",
"-  c #060401",
";  c #030304",
":  c #040404",
">  c gray2",
",  c #060606",
"<  c #070707",
"1  c #0A0702",
"2  c #0E0A03",
"3  c #0F0A04",
"4  c gray3",
"5  c #090909",
"6  c gray4",
"7  c #0C0C0C",
"8  c gray5",
"9  c #0E0E0E",
"0  c gray6",
"q  c #150F06",
"w  c #191207",
"e  c #1F1708",
"r  c #101010",
"t  c #111111",
"y  c gray7",
"u  c #131313",
"i  c gray8",
"p  c #151515",
"a  c #161616",
"s  c gray9",
"d  c #181818",
"f  c #191919",
"g  c gray10",
"h  c #1B1B1B",
"j  c gray11",
"k  c #1D1D1D",
"l  c #1E1E1E",
"z  c gray12",
"x  c #271C0A",
"c  c #2D210C",
"v  c #31230D",
"b  c #35260E",
"n  c #3A2A10",
"m  c #202020",
"M  c gray13",
"N  c #232323",
"B  c gray14",
"V  c #252525",
"C  c #272727",
"Z  c #282828",
"A  c gray16",
"S  c #2A2A2A",
"D  c gray17",
"F  c #2C2C2C",
"G  c #2F2F2F",
"H  c gray19",
"J  c #313131",
"K  c #323232",
"L  c #343434",
"P  c #353535",
"I  c gray21",
"U  c gray22",
"Y  c #3A3A3A",
"T  c gray23",
"R  c #3C3C3C",
"E  c gray24",
"W  c #3F3F3F",
"Q  c #453213",
"!  c #4C3714",
"~  c #513A16",
"^  c #523B16",
"/  c #62471A",
"(  c #664A1C",
")  c #6F501E",
"_  c #765520",
"`  c #795821",
"'  c #7C5A22",
"]  c gray25",
"[  c gray26",
"{  c #444444",
"}  c #464646",
"|  c gray28",
" . c #494949",
".. c gray29",
"X. c #4B4B4B",
"o. c #4C4C4C",
"O. c gray30",
"+. c #4E4E4E",
"@. c gray31",
"#. c #505050",
"$. c gray32",
"%. c #535353",
"&. c gray33",
"*. c #555555",
"=. c #565656",
"-. c gray34",
";. c #585858",
":. c gray35",
">. c #5A5A5A",
",. c #5B5B5B",
"<. c gray36",
"1. c #5D5D5D",
"2. c gray37",
"3. c #5F5F5F",
"4. c gray38",
"5. c #626262",
"6. c gray39",
"7. c #656565",
"8. c gray40",
"9. c #676767",
"0. c #686868",
"q. c DimGray",
"w. c #6A6A6A",
"e. c gray42",
"r. c #6C6C6C",
"t. c #6D6D6D",
"y. c gray43",
"u. c gray44",
"i. c #717171",
"p. c #727272",
"a. c gray45",
"s. c #747474",
"d. c #7E7E7E",
"f. c #8D6627",
"g. c #A4772D",
"h. c #B28131",
"j. c #D29839",
"k. c #DB9F3C",
"l. c #DC9F3C",
"z. c #E1A33E",
"x. c #E5A63F",
"c. c #E6A73F",
"v. c #E9A940",
"b. c #F2AF42",
"n. c #808080",
"m. c #898989",
"M. c #8D8D8D",
"N. c #939393",
"B. c #959595",
"V. c #979797",
/* pixels */
"                                                                                ",
"                                                                  . .           ",
"                                                        . .       1 -           ",
"                                                        . . = . 1 ' c           ",
"                                                          3 / b ) x.! .         ",
"                                                          . ` x.v.b.g.n 2 .     ",
"                                                          e h.j.z.b.k.f.x . .   ",
"                                                        . v Q w ^ l._ . .       ",
"                                                      . . . . . . ^ ( .         ",
"                                                              .   . q .         ",
"                                          . . .               . ,   . .         ",
"                                        . V ,.M .               .     .         ",
"                    . . . , , , . . . . V n.B.d.V . , . . . . , .               ",
"                . 4 M E $.,.,.&...P g . V s.N.B.d.V . ,     , ;                 ",
"            . 4 G ,.5.$.E G &.s.a.a.w.+.l 9 +.M.B.d.V .                         ",
"          . s &.5.U u 9 g V &.a.a.a.a.a.9.E 9 U m.B.d.V .                       ",
"        . M 5.+.u u E <.y.a.a.a.a.a.a.a.a.y.+.9 U M.B.d.V .                     ",
"      . g 5.] 4 H 9.a.a.a.a.a.a.a.a.a.a.a.y.w.+.9 +.N.B.<..                     ",
"      9 ,...4 ] a.a.a.a.a.a.a.a.a.a.a.a.a.a.y.w.E u s.n.V .                     ",
"    . U <.u U a.a.a.a.a.a.a.a.a.a.a.a.a.a.a.a.w.5.l Z V .                       ",
"    u 5.G l w.a.a.a.a.a.a.a.a.a.a.a.a.a.a.a.a.y.w..., .                         ",
"  . H <.9 +.a.a.a.a.a.a.a.a.a.a.a.a.a.a.a.a.a.y.w.5.g .                         ",
"  . +.] s w.a.a.a.a.a.a.a.a.a.a.a.a.a.a.a.a.a.a.w.w.H .                         ",
"  4 <.V Z a.a.a.a.a.a.a.a.a.a.a.a.a.a.a.a.a.a.a.w.w.{ .                         ",
"  u 5.g E a.a.a.a.a.a.a.a.a.a.a.a.a.a.a.a.a.a.a.w.w.+.,                         ",
"  s 9.U &.a.a.a.a.a.a.a.a.a.a.a.a.a.a.a.a.a.a.a.w.w.$.,                         ",
"  u w.a.a.a.a.a.a.a.a.a.a.a.a.a.a.a.a.a.a.a.a.a.w.w.$.,                         ",
"  9 5.a.a.a.a.a.a.a.a.a.a.a.a.a.a.a.a.a.a.a.a.a.w.w.{ .                         ",
"  , $.a.a.a.a.a.a.a.a.a.a.a.a.a.a.a.a.a.a.a.a.a.w.w.P .                         ",
"  . U a.a.a.a.a.a.a.a.a.a.a.a.a.a.a.a.a.a.a.a.y.w.9.l .                         ",
"    s w.a.a.a.a.a.a.a.a.a.a.a.a.a.a.a.a.a.a.a.w.w.$.4                           ",
"    . { a.a.a.a.a.a.a.a.a.a.a.a.a.a.a.a.a.a.y.w.9.Z .                           ",
"    . s 5.a.a.a.a.a.a.a.a.a.a.a.a.a.a.a.a.y.w.w...,                             ",
"      . Z y.a.a.a.a.a.a.a.a.a.a.a.a.a.a.a.w.w.,.s .                             ",
"        . H y.a.a.a.a.a.a.a.a.a.a.a.a.a.w.w.,.l .                               ",
"          . Z 5.a.a.a.a.a.a.a.a.a.a.a.w.w.$.s .                                 ",
"            . s { w.a.a.a.a.a.a.a.y.w.,.P 4 .                                   ",
"              . . s U $.5.w.9.5.,.{ Z 9 .                                       ",
"                    . , 9 u u 9 4 . .                                           ",
"                                                                                "
};
