/* XPM */
static char *_63b38573b9441c79ff1cb0468b0b672xGvSBkXdIEyMoRAt[] = {
/* columns rows colors chars-per-pixel */
"40 40 179 2 ",
"   c #0C0606",
".  c #150F0F",
"X  c #16110E",
"o  c #1E150E",
"O  c #1C1514",
"+  c #1D1A16",
"@  c #1E1D19",
"#  c #21120D",
"$  c #231613",
"%  c #281612",
"&  c #241A15",
"*  c #2B1A16",
"=  c #231719",
"-  c #2B1718",
";  c #241D1A",
":  c #2A1C1B",
">  c #321E1C",
",  c #3A1E1B",
"<  c #25211D",
"1  c #2C211E",
"2  c #33211E",
"3  c #3B221E",
"4  c #2B1E20",
"5  c #2E2322",
"6  c #2E2B24",
"7  c #332423",
"8  c #3B2623",
"9  c #332A25",
"0  c #3B2A25",
"q  c #352629",
"w  c #352B2A",
"e  c #3A2D2C",
"r  c #36312D",
"t  c #3C322E",
"y  c #3F2F32",
"u  c #3E3431",
"i  c #3E3934",
"p  c #3D3B3C",
"a  c #422522",
"s  c #422A26",
"d  c #482B27",
"f  c #432D29",
"g  c #492E2B",
"h  c #43322D",
"j  c #4B322D",
"k  c #56352A",
"l  c #55392F",
"z  c #5A3A2F",
"x  c #412E32",
"c  c #433433",
"v  c #4B3533",
"b  c #433935",
"n  c #4B3A34",
"m  c #443D3A",
"M  c #4B3C3B",
"N  c #523532",
"B  c #523A34",
"V  c #5B3D33",
"C  c #513B3D",
"Z  c #523C3E",
"A  c #503E3E",
"S  c #523E3F",
"D  c #533D3A",
"F  c #633F33",
"G  c #45403A",
"H  c #47403A",
"J  c #47423E",
"K  c #48403D",
"L  c #4A413C",
"P  c #49413E",
"I  c #4B403F",
"U  c #4E403F",
"Y  c #4C433E",
"T  c #4C453F",
"R  c #4C413E",
"E  c #54413C",
"W  c #5B443E",
"Q  c #634136",
"!  c #63453C",
"~  c #66483D",
"^  c #473E41",
"/  c #4C3E43",
"(  c #553F41",
")  c #464343",
"_  c #4A4240",
"`  c #4C4241",
"'  c #4E4341",
"]  c #4D4342",
"[  c #4F4343",
"{  c #4E4540",
"}  c #4F4641",
"|  c #4C4442",
" . c #4D4543",
".. c #4F4442",
"X. c #4E4644",
"o. c #4F4745",
"O. c #4C4444",
"+. c #4D4946",
"@. c #4B4649",
"#. c #4D4B4A",
"$. c #534141",
"%. c #504241",
"&. c #514342",
"*. c #514141",
"=. c #564042",
"-. c #544242",
";. c #504541",
":. c #574344",
">. c #504644",
",. c #514644",
"<. c #504645",
"1. c #524745",
"2. c #574545",
"3. c #544645",
"4. c #574747",
"5. c #534443",
"6. c #594546",
"7. c #5A4647",
"8. c #5A4743",
"9. c #504845",
"0. c #534944",
"q. c #514946",
"w. c #534947",
"e. c #524846",
"r. c #524A47",
"t. c #544947",
"y. c #554C47",
"u. c #544946",
"i. c #5C4A46",
"p. c #53464A",
"a. c #5B4748",
"s. c #564B49",
"d. c #544C49",
"f. c #554D4A",
"g. c #574D4B",
"h. c #564E4B",
"j. c #574F4C",
"k. c #544C4C",
"l. c #5B4949",
"z. c #5B4B4B",
"x. c #5A4A4A",
"c. c #5C4A4A",
"v. c #5F4B4C",
"b. c #594F4D",
"n. c #584E4C",
"m. c #5F4F4F",
"M. c #5B4C4B",
"N. c #53504E",
"B. c #58504D",
"V. c #5B524D",
"C. c #5C514F",
"Z. c #544D51",
"A. c #594F51",
"S. c #555252",
"D. c #5B5354",
"F. c #5B5956",
"G. c #5D5659",
"H. c #5D5A59",
"J. c #624642",
"K. c #634B44",
"L. c #6A4E44",
"P. c #604C4D",
"I. c #624E4D",
"U. c #63504E",
"Y. c #6A524D",
"T. c #625454",
"R. c #6A5453",
"E. c #615856",
"W. c #6D5A55",
"Q. c #61565A",
"!. c #625B5B",
"~. c #6A5B5B",
"^. c #705B58",
"/. c #73615F",
"(. c #615F60",
"). c #656262",
"_. c #6A6364",
"`. c #6C6869",
"'. c #766460",
/* pixels */
"% # $ * $ o $ $ * > 8 7 5 6 6 6 9 t u 5 t i m w w u i m M m b m M P b U =.c v C ",
"% # $ & $ o & * * 3 8 7 7 9 6 6 9 e u 5 t b m r t b m m _ P M [ 5.5.b %.3.v M ( ",
"% # $ & $ o * * * 7 8 8 7 9 9 9 9 e c 7 t b G t i m m m | | _ q.s.t.M %.x.M C =.",
"% # $ & $ $ * : * 7 8 8 7 9 9 9 0 e c 9 t c G t i m b m | o.[ o.t.q.M %.x.M C C ",
"& $ & * $ $ * : * 7 0 8 7 7 9 9 e h v 0 h u m u b m b m q.q.| | | 5.M %.c.D C M ",
"& $ & 1 & & * * : 7 0 8 7 7 9 9 h h n 0 h h m u m P m J f.f.o.o.| q.M 3.x.%.D D ",
"& $ * 1 & & ; * > 8 0 0 8 7 9 9 h j v 0 h h M b | T m P f.B.q.q.5.f.[ 3.x.%.:.7.",
"& $ * 1 ; & & & > 8 s 0 8 8 0 0 d g v s h h M b q.| m m f.j.q.q.q.n.| 5.3.%.7.v.",
"$ : 1 : ; + $ & 2 8 s s , 3 0 8 v N B s v h n h ;.q.U P y.B.n.n.P 5.5.s.v.x.7.I.",
"$ : 1 1 ; & & * 2 3 s s 8 s h f s g N s v h n h %.;.M b U ;.U U s.f.| [ 5.%.%.a.",
"$ : : 1 < ; < 1 2 3 8 s a g v j g j D v W E 8.M 8.y.U M t.v.y.y.f.f.| [ 3.3.3.I.",
"$ : : 1 < ; < 1 2 > 3 a a g j d d g B j D E 8.n 8.8.U M x.U.v.z.s.f.q.s.v.n.c.T.",
": : : ; ; ; ; * > * , a a g j d j j B d D W 8.n i.i.E E v.U.c.y.n.B.f.f.C.x.7.I.",
": : ; ; ; ; & ; * * , a a j N j N B D j W 8.i.n E :.E E I.R.I.P.D.D.f.s.v.n.v.T.",
": : ; ; ; ; ; ; * * , a a j N j s d j s D W W f h c h v i.R.I.c.f.j.s.f.D.v.v.T.",
": ; ; ; ; ; ; * : > 8 a a d j d 0 f v j W K.J.j v B B D Y.W.R.v.5.f.f.n.D.s.M %.",
"= ; ; ; ; : : * > 3 0 s a d v f 0 h v j B ! ! z V ! ! J.Y.^.R.T.D.F.D.B.E.s.[ A.",
"; < < ; : 4 : * > > 0 s 0 d j f 0 h j j V ~ Q k F ~ ! ! Y.W.T.s.Q.!.A.A.!.j.o.A.",
"; ; < ; ; : : : > > 8 0 8 s h 0 h b n B W L.~ k Q ~ W W W.'.~.D.!.!.j.j.!.D.@.S.",
"+ ; ; ; ; : : $ > > 8 0 8 0 f 0 b m R E W K.! l ! K.! 8.W./.~.E.!.H.k.k.G.j.@.S.",
"+ ; ; ; ; * : $ 2 2 0 0 7 0 0 7 t b m n v B B l L.Y.K.E c.C.n.j.D.D.k.k.S.#.) S.",
"@ ; < < : 1 : * 2 2 0 0 7 9 0 7 t c c h f j B B K.Y.i.D 5.s.s.k.S.D.k.k.S.@.) S.",
"; < < < 1 5 5 : : 1 9 9 7 e e 9 t u c c h n D E i.U.y.%.s.D.D.D.D.F.N.N.D.k.@.S.",
"+ ; < ; : 5 5 : * : 7 9 9 e t w e t c c b M E :.P.T.x.5.A.G.A.k.H.H.N.S.!.S.@.Z.",
"& ; < < 1 7 7 : : : 9 1 w 9 w 9 c e c e M b ;.;.T.E.s.5.D.G.A.G.H.D.k.H.H.D.@.k.",
"+ & & ; 1 7 1 * : * 7 : w 9 e 9 e e c e M b E U n.C.5.o.G.Q.A.D.D.D.k.)._.!.@.#.",
"$ & * * 1 7 7 1 : : 9 : 9 9 e w e e c t M b U M o.d._ o.!.!.j.A.j.k.o.!._.!.o.) ",
"* 1 2 1 7 7 7 1 7 7 9 : 9 5 e w e e b c M b P m _ q._ +.!.!.j.j.A.j.o.Q.!.!.k.j.",
"* : 2 2 2 7 7 > 7 7 e 1 w 9 u y v v M h n b | P q.k.| +.!.E.j.n.D.E.j.!.!.!.A.!.",
"* : 2 2 7 8 8 7 > > q : w q i u M C D h b b | P k.B.+.+.E.G.f.D.D.E.A.!.Q.!.A.Q.",
"* 2 7 3 3 3 8 3 : > e 5 w 9 u u v n E h c b [ P f.D.f.k.G.D.s.D.A.D.s.D.A.D.p.A.",
": 3 7 > > * * - > 7 e 5 9 5 e e v v D f c c U m k.D.N.k.G.D.s.D.Q.E.O.s.s.D.p.A.",
": 7 9 7 : : : : 9 7 q : q q c c c E v 0 0 f b M q.F.+.) ) #.@.D.Q.T.x.p.p./ / A.",
"; 5 9 1 : : : : : : q 4 e q x e n E n f f v M ;.s.!.N.N.S.F.Z.Q.Q.Q.T.D.T.p.&.A.",
"; 5 9 1 ; ; ; ; ; : 7 4 e q y e n E n f v B D %.n.!.k.S.S.!.A.G.Q.Q.Q.Q.Q.k./ O.",
": 5 9 1 ; ; ; = : ; 4 = 7 q c y n n j s v D D M G.!.#.S.F.).S.Q.!.!.D.G.G.k.^ ^ ",
"; < 5 ; ; ; ; = ; = ; O 5 q u e b n h s B E =.[ D.H.k.F.).`.D.Q.G.D.D.G.!.A.^ ^ ",
"O + ; ; ; ; ; = O O ; O 5 9 e w t j s 0 v E =.[ M #.) F.)._.k.Z.@.#.Z.H.!.S.m p ",
"O + ; ; @ ; ; + O X O . 4 5 q 5 0 h 0 8 j C M M b +.) S.H.!.@.#.@.@.k.G.H.@.p p ",
"; < < < ; ; ; + O X .   + ; q 9 h n h 0 v n v b D.F.#.F.(.).Z.G.S.S.S.D.G.@.p p "
};
