/* XPM */
static char *_75f9f309ef94b40ba6cc5b2db47af26ueFsioCLiEJsGW1M[] = {
/* columns rows colors chars-per-pixel */
"40 40 49 1 ",
"  c white",
". c #FCFCFB",
"X c #EDE9E6",
"o c #EAE6E2",
"O c #EAE6E3",
"+ c #EFECE9",
"@ c #927762",
"# c #886850",
"$ c #8A6A52",
"% c #EDE9E5",
"& c #86664D",
"* c #9F724D",
"= c #A77953",
"- c #A77952",
"; c #886950",
": c #B18159",
"> c #B08159",
", c #88684F",
"< c #AF8058",
"1 c #AB7E56",
"2 c #AA7D55",
"3 c #957045",
"4 c #977347",
"5 c #997448",
"6 c #997447",
"7 c #AC7E56",
"8 c #C49B64",
"9 c #CDA26A",
"0 c #CCA169",
"q c #C49A64",
"w c #987347",
"e c #AB7D55",
"r c #D7AB70",
"t c #D6AA70",
"y c #946F45",
"u c #AB7E55",
"i c #B0835B",
"p c #B3855E",
"a c #AF8159",
"s c #B08058",
"d c #B4855E",
"f c #E5BB9D",
"g c #B4865E",
"h c #A67952",
"j c #E6BC9D",
"k c #C59B64",
"l c #CDA36A",
"z c #CEA36A",
"x c #D7AA70",
/* pixels */
"     .XoOOOOOOOOOOOOOOOOOOOOOOOOoX.     ",
"     +@#$$$$$$$$$$$$$$$$$$$$$$$$#@+     ",
"     %&*=----------------------=*&%     ",
"     X;=:>>>>>>>>>>>>>>>>>>>>>>:=;X     ",
"     X,-><12222221<>><12222221<>-,X     ",
"     X,->1345665437>>7345665431>-,X     ",
"     X,->2489009qwe>>ewq9009842>-,X     ",
"     X,->259rttr95e>>e59rttr952>-,X     ",
"     X,->269tttt05e>>e50tttt962>-,X     ",
"     X,->269tttt05e>>e50tttt962>-,X     ",
"     X,->269tttt05e>>e50tttt962>-,X     ",
"     X,->269tttt05e>>e50tttt962>-,X     ",
"     X,->269tttt05e>>e50tttt962>-,X     ",
"     X,->269tttt05e>>e50tttt962>-,X     ",
"     X,->269tttt05e>>e50tttt962>-,X     ",
"     X,->269tttt05e>>e50tttt962>-,X     ",
"     X,->259rttr95e>>e59rttr952>-,X     ",
"     X,->2489009qwe>>ewq9009842>-,X     ",
"     X,->1345665437>>73456654yu>-,X     ",
"     X,-><12222221<>><1222222ip>-,X     ",
"     X,->>>>>>>>>>>aa>>>>>>sdffgh,X     ",
"     X,->>>>>>>>>>>aa>>>>>><djfgh,X     ",
"     X,-><1eeeeee7<>><7eeeee2ip>-,X     ",
"     X,->13w5555w37>>73w5555wyu>-,X     ",
"     X,->24kl99zkwe>>ewkz99lk42>-,X     ",
"     X,->259xttx95e>>e59xttx952>-,X     ",
"     X,->269tttt05e>>e50tttt962>-,X     ",
"     X,->269tttt05e>>e50tttt962>-,X     ",
"     X,->269tttt05e>>e50tttt962>-,X     ",
"     X,->269tttt05e>>e50tttt962>-,X     ",
"     X,->269tttt05e>>e50tttt962>-,X     ",
"     X,->269tttt05e>>e50tttt962>-,X     ",
"     X,->259rttr95e>>e59rttr952>-,X     ",
"     X,->2489009qwe>>ewq9009842>-,X     ",
"     X,->1345665437>>7345665431>-,X     ",
"     X,-><12222221<>><12222221<>-,X     ",
"     X;=:>>>>>>>>>>>>>>>>>>>>>>:=;X     ",
"     %&*=----------------------=*&%     ",
"     +@#$$$$$$$$$$$$$$$$$$$$$$$$#@+     ",
"     .XoOOOOOOOOOOOOOOOOOOOOOOOOoX.     "
};
