/* XPM */
static char *a9b1aa882d3946e8f84549ea2de31acc4ks5cmIMJcUOmWVw[] = {
/* columns rows colors chars-per-pixel */
"40 40 199 2 ",
"   c None",
".  c #000000",
"X  c #140909",
"o  c #1C1C1C",
"O  c #151513",
"+  c #260D12",
"@  c #2B0E13",
"#  c #350E1B",
"$  c #361219",
"%  c #200B0F",
"&  c #38291D",
"*  c #242424",
"=  c #292929",
"-  c #343434",
";  c #3B3C3B",
":  c #402E1F",
">  c #481A23",
",  c #571B28",
"<  c #433122",
"1  c #4A3626",
"2  c #4C3C2D",
"3  c #443829",
"4  c #523D2B",
"5  c #5D222E",
"6  c #752837",
"7  c #6A2734",
"8  c #55412F",
"9  c #524230",
"0  c #684A33",
"q  c #79543C",
"w  c #6A5037",
"e  c #713745",
"r  c #444444",
"t  c #4C4C4C",
"y  c #535453",
"u  c #5B5C5C",
"i  c #575857",
"p  c #57494C",
"a  c #765B48",
"s  c #694C53",
"d  c #674F47",
"f  c #7E654B",
"g  c #7F694E",
"h  c #7D6352",
"j  c #77685C",
"k  c #646463",
"l  c #6D6C6B",
"z  c #6B6766",
"x  c #756B66",
"c  c #747474",
"v  c #7C7C7B",
"b  c #7B7776",
"n  c #7D7068",
"m  c #8C583B",
"M  c #9E5D3B",
"N  c #913246",
"B  c #A6374D",
"V  c #B63854",
"C  c #AF3A51",
"Z  c #C63D58",
"A  c #CB3966",
"S  c #845C40",
"D  c #BC425A",
"F  c #83654D",
"G  c #8A6749",
"H  c #936949",
"J  c #9F704E",
"K  c #856C58",
"L  c #997756",
"P  c #8B7356",
"I  c #AA7A55",
"U  c #A57855",
"Y  c #B1754E",
"T  c #83756A",
"R  c #897868",
"E  c #927A61",
"W  c #857B73",
"Q  c #847E7A",
"!  c #826E60",
"~  c #CD425D",
"^  c #C24059",
"/  c #D54B65",
"(  c #D94B66",
")  c #DC4D69",
"_  c #D54762",
"`  c #D6526B",
"'  c #E3526D",
"]  c #E65671",
"[  c #E95672",
"{  c #EC5A75",
"}  c #ED5E79",
"|  c #E55E78",
" . c #F25D7A",
".. c #F05B77",
"X. c #E04F6B",
"o. c #F5617E",
"O. c #7F807F",
"+. c #B9865B",
"@. c #AF885D",
"#. c #948270",
"$. c #AC8963",
"%. c #B98D62",
"&. c #BB9267",
"*. c #B69B74",
"=. c #C58659",
"-. c #D68B5B",
";. c #C68D61",
":. c #CB9C6C",
">. c #C69569",
",. c #D39464",
"<. c #D89D6B",
"1. c #D99E70",
"2. c #E49F6E",
"3. c #E19565",
"4. c #D9A06E",
"5. c #DDA372",
"6. c #E6A16F",
"7. c #E5A473",
"8. c #E9A573",
"9. c #E6A977",
"0. c #EAAB75",
"q. c #E6AB7A",
"w. c #E9AD7B",
"e. c #EAB17E",
"r. c #E7B27F",
"t. c #F4B47C",
"y. c #F1AF78",
"u. c #7F7F80",
"i. c #F36B85",
"p. c #F96986",
"a. c #F76782",
"s. c #FC738E",
"d. c #F57991",
"f. c #FA7A93",
"g. c #EF6681",
"h. c #848484",
"j. c #8D8C8C",
"k. c #888784",
"l. c #8F908F",
"z. c #95928E",
"x. c #949493",
"c. c #9D9893",
"v. c #9C9C9B",
"b. c #918F8D",
"n. c #9FA09F",
"m. c #A2A09E",
"M. c #A3A3A3",
"N. c #AAABAB",
"B. c #B1AFAD",
"V. c #B3B3B3",
"C. c #BBBCBC",
"Z. c #B7B8B9",
"A. c #B2B0AE",
"S. c #F88299",
"D. c #CFB084",
"F. c #EAB482",
"G. c #ECB886",
"H. c #EDBD8A",
"J. c #E2BE8E",
"K. c #F9BC81",
"L. c #F2BD87",
"P. c #FC8CA2",
"I. c #FA96A9",
"U. c #FB9EB0",
"Y. c #FBACBC",
"T. c #EFC18E",
"R. c #FDC385",
"E. c #F1C28F",
"W. c #FFCA8A",
"Q. c #FFC688",
"!. c #EFC391",
"~. c #F1C593",
"^. c #F2C996",
"/. c #F3CD9A",
"(. c #F4D19D",
"). c #F6D5A1",
"_. c #FCB8C5",
"`. c #BEC0C0",
"'. c #C3C4C4",
"]. c #C7C8C7",
"[. c #CBCCCC",
"{. c #C7C9C9",
"}. c #CFD0CF",
"|. c #CFD0D0",
" X c #D3D4D3",
".X c #D7D8D7",
"XX c #DBDCDB",
"oX c #FCCCD5",
"OX c #DFE0DF",
"+X c #DFE2E1",
"@X c #E3E3E3",
"#X c #E7E8E7",
"$X c #EBECEC",
"%X c #EFF0EF",
"&X c #F3F4F3",
"*X c #FCFCFC",
"=X c #FEFEFE",
"-X c #FAFAFA",
";X c #F7F8F7",
/* pixels */
"            $ > , > %                                                           ",
"        > B / ] ] ` D 6 +                                                       ",
"      6 ` i.i.a.o. .{ ' B $                                                     ",
"    7 | S.U.I.f.p.o...[ ' B +                                                   ",
"  $ / d._.oXY.P.s.a. .{ ' ( 6                                                   ",
"  6 } S._.oXY.P.f.p. .{ ' _ V @                                                 ",
"X C } d.I.U.I.S.s.a. .[ X._ Z ,                                                 ",
"+ D { i.d.S.f.s.p.o. .[ ) ~ Z 7                                                 ",
"+ D ' } g.i.i.a.o.{ ) ) ( ~ V , O ; i c h.j.l.j.O.l i ; o                       ",
"X B ' ' { } } { ] N s e B 6 s j.C.XX$X&X&X&X&X$X$X@XXX[.N.v t O                 ",
"  6 ( ) X.' ' ] D z +Xz p V.$X=X=X-X-X&X&X&X$X$X#X@X@XXXXX.X].x.t               ",
"  $ V _ _ ( ( ) ^ d b j.$X=X=X=X=X-X-X&X&X&X$X$X$X@X@XXX.X.X X X`.v =           ",
"    , Z ~ ~ ~ ~ ~ 5 k.&X=X=X=X=X=X-X-X&X&X&X$X$X$X@X@XXX.X.X X[.[.[.n.;         ",
"      , C Z Z Z N x &X-X=X=X=X=X-X-X-X&X&X&X$X$X@X@XOXXX.X.X X[.[.]. XB.-       ",
"        $ N V A e [.-X-X-X=X=X=X-X-X;X&X&X&X$X$X#X@X@XXX.X.X X[.[.].}.XXM.o     ",
"            # # b &X&X-X-X-X-X-X-X-X&X&X&X&X$X$X@X@X@XXX.X.X X[.].].[.[.[.z     ",
"              o Z.&X&X&X-X-X-X&X@XXXXXXX@X@X@X@XXXXX.X.X X[.[.[.[.C.v.b.N.M.*   ",
"              t @X&X&X&X&X&XOX[.[.[.[.[.[.[.[.}.}.[.[.[.[.'.V.v.b a m M q b.t   ",
"              b %X&X&X&X&XXX[.'.z.T K K ! T W W W W W n j a a m Y -.3.2.-.f k   ",
"              M.&X$X&X&X$X[.C.j I ,.<.5.4.,.;.=.=.=.=.=.-.,.<.6.8.8.7.8.t.U k   ",
"            * '.$X$X$X&XXX[.W +.w.!./.(.(./.~.E.H.H.G.G.F.F.w.w.5.J +.8.t.%.k   ",
"            ;  X$X$X$X$X.XV.F 9./.).)./.D.J.^.~.!.H.G.G.F.e.w.w.U . 1 8.t.>.z * ",
"            t .X@X#X$X@X|.x.I E.).).).*.O d !.~.T.H.G.F.F.w.w.w.H . : 0.K.:.z * ",
"            i XX@X@X@X@X[.W ;./.).(.(.L . 3 H.T.H.G.G.F.e.w.w.0.H . < 0.K.:.l * ",
"            i XX@X@X@XXX{.n 4.(.(././.P . 2 H.T.H.G.F.F.w.9.9.8.G . 1 e.R.:.l * ",
"            i .XXXOX@X.X'.h q.(./././.K . 2 H.H.G.G.F.e.w.9.9.8.m . 4 t.R.>.l   ",
"            r [.XXXXXX.XC.F r././.^.^.g . 9 H.G.G.F.F.w.9.9.7.7.q . 8 K.Q.&.l   ",
"            - '..X.XXX.XC.F F./.^.~.^.g . 9 G.G.F.F.w.w.9.9.7.7.w . w R.Q.$.z   ",
"            o M..X.X.X.X`.F F.^.~.!.~.f . 9 F.F.F.e.w.9.9.7.2.7.0 . a Q.Q.$.k   ",
"              O..X X.X.X'.h q.~.!.T.E.f . 4 F.F.e.w.9.9.7.7.2.8.4 . G Q.R.E i   ",
"              t ]. X X X[.h 5.T.T.H.H.F . 2 F.e.w.9.9.9.7.2.7.0.< . L W.e.T t   ",
"              o v.}.[.[. Xx ,.H.H.G.L.G . 1 q.w.9.9.9.7.2.6.0.9.& . @.W.>.v -   ",
"                y '.[.[..XQ I G.G.G.G.G . < q.w.9.9.7.2.2.8.t.0.& X :.Q.E b     ",
"                  v [.]. XM.G F.F.F.F.L . & 5.9.9.7.2.2.8.0.t.K.%.@.R.&.k.y     ",
"                  * x.[.[.[.j ;.F.e.e.>.& q 9.9.7.2.2.8.0.t.K.R.W.R.%.#.u.      ",
"                    = x.[..XV.a >.e.w.9.1.7.7.7.2.2.8.0.t.K.R.K.:.E c.j.*       ",
"                      o c ].@XV.j U <.9.8.8.7.7.7.0.y.t.0.:.$.E c.V.c           ",
"                          r j.[..Xm.T P J U I I I U L E #.c.V.V.h.-             ",
"                              ; c M.Z.Z.V.B.B.A.V.Z.C.Z.N.h.i *                 ",
"                                    * ; y u z z u y ; *                         "
};
