/* XPM */
static char *_87e733b952d4548f312b303e44b9d85cxkSVtLid7vlQH1s[] = {
/* columns rows colors chars-per-pixel */
"40 40 211 2 ",
"   c #953500",
".  c #9B3600",
"X  c #9D3C05",
"o  c #9A3D0B",
"O  c #A33D03",
"+  c #A23F0C",
"@  c #9A450F",
"#  c #9B4513",
"$  c #9D4812",
"%  c #A34305",
"&  c #AE4607",
"*  c #A74A07",
"=  c #AA4B06",
"-  c #A4430C",
";  c #AA450E",
":  c #A7490A",
">  c #AB4B0D",
",  c #BC4704",
"<  c #BA4B04",
"1  c #B04608",
"2  c #B44D0B",
"3  c #BC4C0B",
"4  c #B44704",
"5  c #BC5301",
"6  c #B3510B",
"7  c #BC520D",
"8  c #A54512",
"9  c #A84711",
"0  c #AC4B13",
"q  c #A64D1A",
"w  c #AE4D1B",
"e  c #B14D13",
"r  c #B14C18",
"t  c #AC5216",
"y  c #AC531C",
"u  c #B55317",
"i  c #BB5312",
"p  c #B65914",
"a  c #BC5A16",
"s  c #B4541C",
"d  c #B8531B",
"f  c #B2581C",
"g  c #BB5A1C",
"h  c #BE6216",
"j  c #BE621A",
"k  c #AC5520",
"l  c #AE5924",
"z  c #B55624",
"x  c #BB5622",
"c  c #B35B24",
"v  c #BB5A25",
"b  c #B35C2C",
"n  c #BB5C29",
"m  c #B66125",
"M  c #BC6122",
"N  c #B6612A",
"B  c #BB632C",
"V  c #BD6635",
"C  c #C34C0A",
"Z  c #C15905",
"A  c #C4540E",
"S  c #C9550D",
"D  c #C25B0C",
"F  c #CA5C0A",
"G  c #C35506",
"H  c #C35412",
"J  c #CA5613",
"K  c #C55A14",
"L  c #CB5A15",
"P  c #C45619",
"I  c #C55C1A",
"U  c #CA5C1B",
"Y  c #D15F19",
"T  c #CC640F",
"R  c #CB6117",
"E  c #C3641E",
"W  c #CC631C",
"Q  c #C4681D",
"!  c #CF6819",
"~  c #D36315",
"^  c #D3641C",
"/  c #D36A1D",
"(  c #DB721F",
")  c #C15C22",
"_  c #CA5D23",
"`  c #C05F2A",
"'  c #C26323",
"]  c #CB6423",
"[  c #C56A24",
"{  c #CC6C25",
"}  c #C3652C",
"|  c #C86629",
" . c #C46B2C",
".. c #CC6C2B",
"X. c #D26622",
"o. c #DA6622",
"O. c #D46B23",
"+. c #DB6D24",
"@. c #D26528",
"#. c #D46C2B",
"$. c #DA6D2A",
"%. c #C7702B",
"&. c #CE712C",
"*. c #D77022",
"=. c #DC7223",
"-. c #D2732D",
";. c #DC732C",
":. c #D4782F",
">. c #DD792C",
",. c #C36532",
"<. c #C36B32",
"1. c #CD6C32",
"2. c #C0673B",
"3. c #C56E3C",
"4. c #CC6B39",
"5. c #D36D32",
"6. c #DA6E31",
"7. c #D16D3C",
"8. c #CC7334",
"9. c #CF7A33",
"0. c #C7713B",
"q. c #CC723B",
"w. c #CE7A3C",
"e. c #D47334",
"r. c #DB7333",
"t. c #D67A34",
"y. c #DC7A34",
"u. c #D4743B",
"i. c #DA753B",
"p. c #D47B3D",
"a. c #DB7A3C",
"s. c #E06E28",
"d. c #E17424",
"f. c #E3742C",
"g. c #E87729",
"h. c #E57A2D",
"j. c #EA7B2D",
"k. c #E37534",
"l. c #E97731",
"z. c #E37B34",
"x. c #EA7B34",
"c. c #E2763D",
"v. c #E37C3B",
"b. c #EA7E3C",
"n. c #D57641",
"m. c #DA7444",
"M. c #D47B42",
"N. c #DC7D44",
"B. c #D57C49",
"V. c #DD7D4A",
"C. c #E27D43",
"Z. c #E97E44",
"A. c #D7813E",
"S. c #DC823D",
"D. c #EB822F",
"F. c #E58134",
"G. c #EF8531",
"H. c #E4833C",
"J. c #EB833C",
"K. c #E3883F",
"L. c #EB893C",
"P. c #F18837",
"I. c #F3853C",
"U. c #F7893E",
"Y. c #F18336",
"T. c #D68144",
"R. c #DC8243",
"E. c #DE8945",
"W. c #D6814A",
"Q. c #DC844A",
"!. c #DE894C",
"~. c #DE8551",
"^. c #E38344",
"/. c #EC8443",
"(. c #E48A44",
"). c #ED8B43",
"_. c #E3844B",
"`. c #EC844A",
"'. c #E38B4B",
"]. c #EF8B4D",
"[. c #EC8B4C",
"{. c #F28543",
"}. c #F88640",
"|. c #F18C44",
" X c #F1854B",
".X c #F18D49",
"XX c #F18D4E",
"oX c #F38C4C",
"OX c #F88849",
"+X c #FA8943",
"@X c #E69149",
"#X c #EA924A",
"$X c #F69349",
"%X c #F5924E",
"&X c #F5904C",
"*X c #F5914C",
"=X c #FA934C",
"-X c #F49044",
";X c #E38554",
":X c #E88154",
">X c #E58B51",
",X c #E58C53",
"<X c #EB8D54",
"1X c #EB8D5A",
"2X c #F48C52",
"3X c #F88E54",
"4X c #EA9152",
"5X c #EB9154",
"6X c #EB915B",
"7X c #F79252",
"8X c #F99453",
/* pixels */
"C.e.i.5.y.%X&X/.).).%X&Xr.r.^.i.C.`.i.5.r.y.).$XH.-X/.%X7XC.a.m.V.V.:Xm.7.m.m.:X",
"s - - X : | ..{ ....t...> : 0 - z n - % - * E e.&.-...u.1.0 9 8 w w v 0 + 9 + w ",
"V l b k c M.T.M.M.M.Q.M.B N V b 2.3.b c c c 8.!.p.T.M.~.B.b b V B B 3.B c N c B ",
"Q.M.>XQ.R.,X'.'.5XQ.>X>XV.~.1XV.V.~.B.~.>XM.^.5XR.5X'.,X,XB.;X6XR.A.'.S.R.'.R.(.",
"$.$.J.z.O.*./ / J.$.O.$.$.v./.#.#.r.#.z.J.*.O./ / z.;.O.#.#.v./.*./ =./ ( h.=.=.",
"x.f.Y.h.+.=.=.d.U.f.;.f.k./.OXk.6.b.f.k.x.f.d.=.d.P.h.;.f.;.b.I.g.=.j.d.g.D.d.d.",
"$XH.).L.J.&X.X.XoX`.oX`.i.a.`.i.C.2X`.^././.%X.X).%X/.XXoXi.a.C.e.a.2X].`.XX`.].",
"a.[ &.-.t.^.a.u.u.a._.u.9 X 9 - x N.u.1.1.e.^.^.a.t.1.N.u.; X - o s u.u.4.u.4.N.",
").{ -.t.t.[.^.u.u.N.N.V.w 0 9 - ` _.u.e.a.N.^.^.t.t.N.e._.x 9 0 0 v _.7.n.n.N.V.",
"H.>.|.-X|.8X%X].7X^.`.^.i.a.`.i.5.^.a.^.XX/.oX7X7X8X`.`.].v.e.`.#.t.^.v.^.8XXXXX",
"< 5 d.h.=.f.f.x.x.H H 4 A A X.7 < 7 < X.l.+.f.J.f.x.J K < 7 < +.G 5 < Z F G.d.d.",
"5 D =.>.;.z.k.J.{.] U K I I X.7 3 i 7 $.b.r.k.z.J.J.] I H K H *.D 5 5 Z T D.=.=.",
"^.R.[.>X6X6XB.B.Q.q.n.>Xp.Q.R.p.M.Q.Q.1X6X6X1Xq.B.Q.n.0.>XQ.B._.t.9.(.S.(.#X(.@X",
"!.T.W.M.~.B.k $ # # q 0.k m c m <.W.Q.W.M.W.W.l o @ q $ 0.N c c m M Q.w.Q.p.T.Q.",
"S.t.t.8.N.u.0 - 0 - u  .g p a p ' e.u.u.1.a.^.g X > 0 0 | ' u u s v u.u.u.u.u.V.",
"/./.J.v.oXoX#.r./.#.v.H.J.>.J.z.z./.|./.v./.8X;.#.v.;.v.v.|.r.J.v.Z.`.2XZ.2Xc.`.",
"J J o.J < K J J f.+.o.A ~ ~ g.F S L L ^ L < A A A f.+.+.F F F j.~ S S J o.^ , C ",
"_ U @.P 3 H H 7 $.+.^ R ~ ~ f.J A K K W U 2 H i 3 X.^ R L F F d.S A S S ^ Y , 3 ",
"V.n.V.u.q.R.V.p.R.R.a.'.R.S.^.t.^.R.u.V.B.u.V._.u._._.S.#XK.H.).S.^.^.t.a.C.5.i.",
"c q k q y <.<. .B  .M T. . . .[ 8. .y y y y ,.0.B }  .M p.%.[ [  .8. .t 0 f t c ",
"u : 0 % - M ' ' h E a t.Q h E Q ..M : ; : % g ' g j E p :.Q h h Q [ [ = % > % > ",
"oXH./.-.O.z.v.y.F.z.>.).F.z.L.L.oX].v.^.v.#.y.a.y.H.H.y.-XL.F.L.L.|.$XH.H.H.#.t.",
"J.z.b.O.A R K D >.*./ =.=.( P.F.x.J.k.J.f.I W R K $./ O.O.*./ z.x.z.J.F.x.>.K R ",
"k.r.b.O.7 7 6 6 O.R R K / W J.z.z.v.r.v.#.7 i i 2 O.R ] I { W J.J.r.z.r.z.$.i a ",
"<X^._.N.u._.V.u._.N.[.[.u.a.[.[.<X1XV._._.u.m._.u._.^._._.N._._._._.<X_._._.n.u.",
"} s v s v M.V.V.B.M._.N.x s n n ,.4.z v n v u.;Xu.V.n.V.n.v z n B B 4.n z n v ,.",
"r % ; O ; ..e.e.5.5.i.5.e - e ; d x - - ; ; ' a.5.e...a.u.0 ; r e r x ; O ; ; d ",
"k.#.v.r.r././.v.oX/.oX/.r.r.v.6.c.Z.6.r.k.#.v./.{.oX/.oXoX6.r.Z.6.r.b.r.6.k.6.c.",
"f.f.U.Y.l.x.f.f.+Xx.l.l.f.J.U.f.s.x.f.x.U.x.j.h.j.I.j.f.x.f.b.}.f.s.l.f.x.}.x.x.",
"$./ z.;.^ O.^ O.k.O.X.O.O.z./.$.X.;.^ *.h.O./ ! / >./ W O.$.b./.;.o.+.^ +.x.+.+.",
"5XR.<X'.R.'.^.'.5X'.[.Q.p.'.6XR.R.5X^.(.'.S.(.(.S.#X(.[.[.R._.1XR.^.].^.^.[.^.^.",
"!.8.T.T.R.,X!.!.Q.Q.,Xn.c c B y <.Q.T.R.A.9.E.@XE.E.R.[.R.c y v t B R.R.p.p.u.R.",
"v.' | ..5.^.N.5.5.i.i.i.O O O O 0 N.i.E ] -.z.y.#.5.i.e.c.& . % O e a.5.e.| e.a.",
".Xv.oXoX/.8X3XoX XZ.`. X#.5.5.] 5.2X/.J.|.).$X=X/. X`./. X#.W ;.@.5.`.v././.H./.",
"[ ] v.H.a.^./.].`.5.5.5.#.5.r._ ' | I r.L.>.z././.].e.5.#.#.] v.{ ] #.#.r.oXv./.",
"= 6 ..-.e.t.t.^.C.g d > d i ] e 0 ; : [ t.{ -.t.t.C.v u > a 2 E 2 1 & i P v.#.r.",
"{ -.^.(.[.].N.^.<X1.e...e.#.a... .8.8.K.(.K.[.^.^.<Xu.1...t.| t.{ @.@.r.r.oXv./.",
"(.K.(.^.].^.' v 1.g ..a.i.e.y...e.R.R.R.t.S.(. .' 1.} } u.a.-.y.#.r./././.%X/.oX",
"H.y.t.-.a.t.: O O . > ' i i i 2 | u.e.&.' ..e.>   X X + ) g 6 i 7 K r.#.;.r.;.z.",
"F.y.y.r.]./.g u ) d ) c.] { ] ] u.N.N.a.t.^.[.' s s v x N...E E ] @.|.k.b.z.v.H."
};
