/* XPM */
static char *af7bd8c72ab64d068e68585736bf21dbw59jy8xPa3uyVxA4[] = {
/* columns rows colors chars-per-pixel */
"40 40 197 2 ",
"   c #193E0B",
".  c #2E3C07",
"X  c #6F1805",
"o  c #691709",
"O  c #761908",
"+  c #412F09",
"@  c #603709",
"#  c #6B3A0F",
"$  c #7E3C0F",
"%  c #753C11",
"&  c #772B07",
"*  c #1F470B",
"=  c #234008",
"-  c #244D09",
";  c #2A560C",
":  c #315509",
">  c #38580F",
",  c #345D0F",
"<  c #2B4E14",
"1  c #334312",
"2  c #375017",
"3  c #305718",
"4  c #3F630B",
"5  c #3A6715",
"6  c #405F0F",
"7  c #485B13",
"8  c #545A12",
"9  c #7D4814",
"0  c #795D13",
"q  c #436314",
"w  c #476819",
"e  c #4D6716",
"r  c #4E7119",
"t  c #5A7315",
"y  c #5B751D",
"u  c #5E7918",
"i  c #597816",
"p  c #7B6B16",
"a  c #647B1C",
"s  c #697D15",
"d  c #7E7C16",
"f  c #4B4225",
"g  c #446924",
"h  c #812007",
"j  c #8B2304",
"k  c #8A2809",
"l  c #86250C",
"z  c #972A0A",
"x  c #9C3306",
"c  c #842C18",
"v  c #843B10",
"b  c #A62C08",
"n  c #A43305",
"m  c #AC3A04",
"M  c #A53608",
"N  c #AC3609",
"B  c #B63A06",
"V  c #B23D09",
"C  c #B83907",
"Z  c #C23D05",
"A  c #85470C",
"S  c #97490E",
"D  c #885A0D",
"F  c #874F12",
"G  c #835D12",
"H  c #BE4104",
"J  c #BC480F",
"K  c #B14F0E",
"L  c #AD5108",
"P  c #AD5A0C",
"I  c #B04815",
"U  c #A25112",
"Y  c #846912",
"T  c #956C14",
"R  c #807E19",
"E  c #8A7114",
"W  c #9F7418",
"Q  c #977C13",
"!  c #BA610D",
"~  c #CA4304",
"^  c #CD4807",
"/  c #C44A09",
"(  c #C6460B",
")  c #D84300",
"_  c #D94806",
"`  c #DD5001",
"'  c #DC560B",
"]  c #DE590E",
"[  c #DB5711",
"{  c #E05706",
"}  c #E95406",
"|  c #ED5C02",
" . c #E35708",
".. c #EB5509",
"X. c #F15200",
"o. c #FC5D03",
"O. c #F85E08",
"+. c #E15613",
"@. c #E55B16",
"#. c #EB6108",
"$. c #F66207",
"%. c #FD6503",
"&. c #FE6B02",
"*. c #F3610B",
"=. c #F6690F",
"-. c #FE6B09",
";. c #F96408",
":. c #EF6B14",
">. c #E2651C",
",. c #F36B1C",
"<. c #FB6C10",
"1. c #FF7513",
"2. c #FC751C",
"3. c #FA7819",
"4. c #DE6224",
"5. c #EC6E22",
"6. c #E9792E",
"7. c #FF7E2B",
"8. c #F77C2C",
"9. c #EC7C3A",
"0. c #FE7F30",
"q. c #F07F39",
"w. c #B56B4E",
"e. c #5E8216",
"r. c #75920C",
"t. c #79950E",
"y. c #7D990F",
"u. c #658017",
"i. c #6E8918",
"p. c #61821A",
"a. c #768D1B",
"s. c #7F881B",
"d. c #74841A",
"f. c #7E9A11",
"g. c #7B9319",
"h. c #7C9712",
"j. c #6B8724",
"k. c #738924",
"l. c #7B9124",
"z. c #8C8B17",
"x. c #88881A",
"c. c #948216",
"v. c #908F1B",
"b. c #918C17",
"n. c #819D13",
"m. c #81951B",
"M. c #8D901B",
"N. c #8B9E1C",
"B. c #859E1E",
"V. c #989F1D",
"C. c #90991C",
"Z. c #86A115",
"A. c #8BA516",
"S. c #8CA619",
"D. c #8FA819",
"F. c #8DA916",
"G. c #91AB17",
"H. c #91A61A",
"J. c #94AD1B",
"K. c #99AF1E",
"L. c #96B01D",
"P. c #9AB21D",
"I. c #9BBA1E",
"U. c #97B91D",
"Y. c #A3BC1D",
"T. c #A8B91F",
"R. c #869D28",
"E. c #86A324",
"W. c #8EA421",
"Q. c #95AC22",
"!. c #98AF20",
"~. c #95B120",
"^. c #9AB220",
"/. c #9AB221",
"(. c #9DB320",
"). c #9CB420",
"_. c #9DB521",
"`. c #9BB421",
"'. c #97B921",
"]. c #9CBB20",
"[. c #A2BA21",
"{. c #FF8224",
"}. c #FF872D",
"|. c #FF8A2D",
" X c #F28135",
".X c #FE8432",
"XX c #FF8D37",
"oX c #FC8738",
"OX c #FD8C3B",
"+X c #A3C321",
"@X c #A8C220",
"#X c #8E8A4D",
"$X c #EA8541",
"%X c #F58543",
"&X c #FD994E",
"*X c #E18254",
"=X c #F89551",
/* pixels */
"f.n.Z.A.A.A.S.S.D.D.S.S.S.D.G.D.Z.Z.Z.A.Z.A.A.A.D.A.A.S.S.S.S.A.A.Z.Z.n.f.y.y.r.",
"f.Z.Z.A.A.D.G.G.G.G.G.G.G.G.G.G.D.A.Z.A.A.A.S.A.S.A.D.S.D.F.H.G.D.Z.A.Z.n.f.t.r.",
"n.Z.Z.A.D.G.G.J.J.J.J.J.J.J.J.J.J.G.D.S.D.D.G.D.S.S.D.D.H.D.G.G.G.D.A.Z.Z.f.y.y.",
"n.Z.A.D.G.G.J.J.J.J.L.L.L.L.L.L.J.J.J.H.D.J.J.J.G.G.J.J.G.G.G.G.G.G.D.Z.Z.n.h.r.",
"Z.D.G.G.G.G.J.J.L.P.P.P.P.P.P.P.I.P.P.J.L.L.J.L.P.a.m.J.J.D.D.J.J.G.G.A.Z.n.f.y.",
"G.J.J.J.J.J.J.J.P.P.P.P.P.P.P.).I.I.L.L.J.L.L.).g.6 s P.J.J.J.J.J.J.G.G.D.Z.f.y.",
"J.J.J.J.L.L.J.L.P.P.P.P.P.P.).(.P.P.P.L.K.J.P.H.w q J./.J.J.J.J.J.J.G.P.~.A.f.y.",
"J.J.L.J.J./.L.L.P.P.P.P.P.P.).).P./.P.P.P.U.I.u.5 e g.I.L.!.J.J.J.J.G.G.S.Z.n.f.",
"J.J.L./.P.P.P.P.P.P.P.P.P.P.).(.).P.P.U.M.v.J.4 3 d.Y./.K.P.L.L.J.J.G.G.D.Z.n.f.",
"J.J.J.L.P.P.P.P.P.P.P.P.P./.)._.I.J.U.b.M b 8 ; i Y.i.a Y.U.P.L.J.J.J.G.D.Z.n.f.",
"J.J.J.L.P.P.P.P./.P.P.P.P./.).I.).].N./ ;.] &   e y t S.).P.P.~.J.J.J.G.D.Z.n.f.",
"J.J.J.J.P.P.I.[.).P.P.P./.P.P.(.[.~.P o.:..XJ 8 a.m.[.I.J.P.P.P.P.L.J.J.G.A.n.f.",
"G.J.J.J.P.P.P.P.P.P./.P.P.P.P.P.].T } %.>.XX@.c.+XI.W.J.P.P.P.P.P.L.L.J.J.A.n.f.",
"G.J.J.J.K.P.P.L.P./.P.P.P.P.P.].c.` &.%.2.OX+.E ].J.r H.I.P.L.L.L.L.J.J.J.G.n.f.",
"J.J.J.J.P.P.P.J.L.L.P././.P.I.N./ *.%.| 0.}.N x.@Xi > Y.L.P.(.P.L.L.J.J.J.D.Z.f.",
"J.J.J.J.P.P.P.P.K.J.P.P.P.P.L.U o.#.;.$X&X( G +XW.2 a.E.P.P.P.P.L.P.J.J.J.S.Z.f.",
"G.J.J.J.P.P.P.L.L.P.].P.K.'.W X.&.%.-.=Xw.O A d.1 a p.j.Q.P.P.P.L.L.L.J.G.G.Z.f.",
"G.J.J.J.P.P.P.P.P.P./.J.P.M.^ <.$.%.$.j j { C + - : 7 u l.I.P.P.L.L.J.J.J.G.Z.f.",
"G.G.J.J.L.P.P.P.P.L.!.P.~.L ,. X*. .h k :.}.@.@ , s J.P.R.J.P.P.J.J.J.J.G.G.Z.f.",
"J.J.J.J.J.P.P.P.L.P.P.U.Q @.OX1.| l m 2.9.OX+.Y +XT.).e.g y J.P.L.L.J.J.J.G.Z.f.",
"J.J.J.J.L.P.P.P.P.P.P.J.K .X2.` l I {.OX|.[ c % C.E.q < < a I.L.P.L.J.J.G.D.Z.f.",
"G.J.J.J.J.P.P.P.L.L.U.c.[ 1.^ o z ,..X>.V j / ) v 5 = : 6 S.P.J.L.J.J.J.G.D.Z.f.",
"G.G.J.L.J.J.P.P.P.P.L.! o.n X n %.%.M h B ' 2.{.H . ; q a J.P.J.L.J.J.J.D.A.Z.f.",
"D.J.J.P.P.P.P.P.J.U.V.Z k k ' &.&.N m 5.7.8.q.oX4.f * t B.k.J.L.L.L.J.G.D.A.Z.f.",
"S.G.J.P.P.P.P.P.K.].F $ 9 o.1.O.V z &. X%X.X6.6.*X#Xu 4 r k.J.P.P.P.J.J.G.S.A.n.",
"S.G.J.P.P.P.).).P.!.x.p } ..C S # _ &.-.1.=.-.-.z z.Y.N.J.I.J.J.P.J.L.J.G.D.Z.n.",
"A.D.J.L.P.P.).).K.].z.b H 9 R P.H.S N C ~ C B x 0 /.!.I.L.J.P.J.L.J.L.L.J.D.Z.n.",
"S.D.G.J.P.P.P.P.P.J.$ D m.'.I.P.P.L.x.d d d s.N.U.P.P.P././.P.L.L.J.J.J.G.S.Z.n.",
"D.D.G.J.P.P.P.P.I.J.H.I.I.P.P.P.P.P.U.].I.I.I.P.K.P.P./.).P.P.P.L.J.J.J.L.J.Z.n.",
"G.G.G.J.P.P.P.P.P.P.I.K.P.P.P.P.P.P.!.J.J.J.J.P.L.L.P.P.P.P.P.~.J.J.J.J./.J.Z.n.",
"G.J.J.J.L.P.P.P.L.P.P.P.P.I.[.).P.P.L.P./.P.P././.J.L.L.P.P.P.P.L.J.J.J.G.A.Z.f.",
"G.J.J.J.L.P.P.P.P.P.P.L.P.P.I./.P.P.L.L.L.P.P.P./.P.K.L.P.P.P.P.P.J.J.G.G.A.n.y.",
"G.J.J.J.J.P.P.L.P.P.P.P.P.P.P.P.P.P.P.P.L.L.P.P.P.P.P.P.P.P.P.L.P.J.G.G.D.Z.f.y.",
"D.G.J.J.J.P.P.P.P.P.P.P.P.P.P.P.P.P.P.P.P.P.P.P.P.P.P.P.P.P.P.J.J.J.G.S.S.Z.y.r.",
"S.P.P.J.J.L.P.P.P.P.P.J.L.L.L.J.J./.P./.P.P.P.P.P.P.P.).I.P.P.J.G.G.D.S.A.n.y.r.",
"Z.J.L.J.J.L.P.P.P.P.J.J.J.J.J.J.J.J.P.P.P.P.P.P.P.P.P.).I.P.P.J.G.S.S.A.n.f.y.r.",
"n.A.G.J.J.J.L.L.L.L.J.J.J.J.J.J.J.J.P.P.P.P.P.P.P.P.P.P.P.P.P.J.D.D.Z.Z.n.y.y.r.",
"n.Z.S.G.J.J.J.J.J.J.J.J.J.J.G.G.J.J.L.P.P.L.L.L.L.J.J.P.P.J.J.G.A.S.Z.f.y.y.r.r.",
"y.n.Z.D.J.J.J.J.J.J.J.J.J.J.G.G.G.G.G.G.G.G.G.J.G.G.G.G.G.G.D.D.A.S.Z.f.t.t.r.r.",
"y.f.Z.A.D.G.J.G.G.G.J.J.J.J.G.G.D.D.S.S.S.D.A.A.A.A.S.S.A.A.A.A.A.S.Z.f.t.r.r.r."
};
