/* XPM */
static char *cdbbfd127dc84cd8f7c9c2daffde034e8uYZiJDnKFpU3Gyq[] = {
/* columns rows colors chars-per-pixel */
"40 40 180 2 ",
"   c #72920B",
".  c #75940B",
"X  c #75900D",
"o  c #74920C",
"O  c #75930D",
"+  c #77920D",
"@  c #77960D",
"#  c #76940E",
"$  c #78930E",
"%  c #78940C",
"&  c #79950D",
"*  c #7A960E",
"=  c #7B970F",
"-  c #7C980F",
";  c #7A9510",
":  c #7B9A10",
">  c #7C9810",
",  c #7D9910",
"<  c #7D9911",
"1  c #7F9911",
"2  c #7C9B11",
"3  c #7E9A11",
"4  c #7F9912",
"5  c #7F9B12",
"6  c #7F9C10",
"7  c #819C0F",
"8  c #809A12",
"9  c #809A13",
"0  c #819B13",
"q  c #819C11",
"w  c #809D11",
"e  c #809C13",
"r  c #829D12",
"t  c #819E12",
"y  c #839E13",
"u  c #829F13",
"i  c #849C12",
"p  c #859D13",
"a  c #849F12",
"s  c #879F13",
"d  c #819B14",
"f  c #819D14",
"g  c #829E15",
"h  c #849F14",
"j  c #859F17",
"k  c #83A014",
"l  c #85A015",
"z  c #84A115",
"x  c #86A114",
"c  c #85A214",
"v  c #87A215",
"b  c #84A017",
"n  c #86A116",
"m  c #85A216",
"M  c #87A217",
"N  c #86A317",
"B  c #87A416",
"V  c #89A213",
"C  c #89A115",
"Z  c #88A314",
"A  c #8AA314",
"S  c #88A316",
"D  c #8AA216",
"F  c #8BA317",
"G  c #89A415",
"H  c #8BA415",
"J  c #8AA615",
"K  c #89A417",
"L  c #8AA516",
"P  c #8BA716",
"I  c #8BA617",
"U  c #8DA614",
"Y  c #8CA516",
"T  c #8EA517",
"R  c #8DA616",
"E  c #8DA617",
"W  c #8EA717",
"Q  c #8CA815",
"!  c #86A018",
"~  c #88A318",
"^  c #89A419",
"/  c #8AA518",
"(  c #8BA619",
")  c #8AA719",
"_  c #8CA418",
"`  c #8DA519",
"'  c #8CA718",
"]  c #8EA718",
"[  c #8EA61A",
"{  c #8FA71B",
"}  c #8DA819",
"|  c #8FA818",
" . c #8FA819",
".. c #8EAA19",
"X. c #8EA91C",
"o. c #90A917",
"O. c #90A718",
"+. c #90A919",
"@. c #91AA18",
"#. c #92AA18",
"$. c #92AB19",
"%. c #90A91A",
"&. c #92A91A",
"*. c #92A91B",
"=. c #91AA1A",
"-. c #91AA1B",
";. c #93AA1B",
":. c #92AB1B",
">. c #93AC1A",
",. c #92AE1B",
"<. c #95AD19",
"1. c #94AE19",
"2. c #94AC1A",
"3. c #94AD1B",
"4. c #95AD1B",
"5. c #95AF1A",
"6. c #96AE1A",
"7. c #97AF1B",
"8. c #93AA1C",
"9. c #92AB1C",
"0. c #94AB1D",
"q. c #93AC1C",
"w. c #93AC1D",
"e. c #93AF1C",
"r. c #92AE1D",
"t. c #93AF1E",
"y. c #94AD1D",
"u. c #95AE1C",
"i. c #96AE1C",
"p. c #96AF1D",
"a. c #97AF1D",
"s. c #94AD1E",
"d. c #95AE1E",
"f. c #96AF1F",
"g. c #99AF1E",
"h. c #94B11B",
"j. c #96B01B",
"k. c #94B01D",
"l. c #97B11C",
"z. c #95B21C",
"x. c #96B31D",
"c. c #97B01E",
"v. c #98B01A",
"b. c #99B11B",
"n. c #98B21B",
"m. c #9AB31A",
"M. c #98B01C",
"N. c #99B11D",
"B. c #9AB01D",
"V. c #99B31C",
"C. c #98B21D",
"Z. c #9AB21C",
"A. c #9BB31D",
"S. c #98B01E",
"D. c #98B11F",
"F. c #99B11F",
"G. c #9BB11E",
"H. c #9AB01F",
"J. c #99B31E",
"K. c #9AB21E",
"L. c #9BB31F",
"P. c #9CB31D",
"I. c #9BB51E",
"U. c #9AB41F",
"Y. c #9CB51C",
"T. c #9DB61D",
"R. c #9CB41E",
"E. c #9DB51F",
"W. c #98AF20",
"Q. c #97B020",
"!. c #99B021",
"~. c #98B121",
"^. c #99B220",
"/. c #9AB220",
"(. c #9AB321",
"). c #9BB321",
"_. c #9BB520",
"`. c #9CB420",
"'. c #9DB521",
"]. c #9EB620",
/* pixels */
"5 t N C L R  .` %.%.` R R %.%. .L N N B / / C C / L R R ` ` R L L C N t 6 - = O ",
"9 g N L `  .%.%.%.%.%.%. .%.%.%.` L C L L R R R L R R `  . . . .` / ~ N t 5 = O ",
"d j ~ /  .%.%.%.>.3.3.>.>.>.u.q.%.%.` R R  . .X.R R ` %.O.o. .%.%.` / N k 5 = $ ",
"p C L R %.%.>.3.u.u.h.l.D.l.l.u.u.u.q.%.%.%.q.q.%. .%.%.%.o.%.9.%.%.` L N 9 = O ",
"R %.q.%.>.>.3.u.g.D.D.D.D.D.D.D._._.D.u.u.u.u.u.u.u.u.u.>.%.%.q.3.>.%.R N t 5 ; ",
"%.q.u.u.u.u.u.u.D.~.D.D.D.D.R.R.R.I.D.l.D.u.D.D.u.u.D.h.q.q.%.>.3.%.%.q. .N 5 = ",
"u.u.u.u.u.u.u.u.~.R.R.D.D.D.D.`.D.n.D.D.D.D.D.l.D.D.D.D.l.u.3.3.q.%.q.u.%.L t 5 ",
"u.u.Q.u.u.l.D.l.D.D.n.n.D.`.`.`.~.D.D.D.n.D.D.~.D.D.D.D.g.D.u.u.u.q.q.>.%.C t 5 ",
"u.u.l.u.3.l.l.D.D.D.D.D.D.D.`.`.R.D.R.R.D.D.D.D.D.D.D.D.D.D.D.u.u.u.%.%.R N g 5 ",
"q.u.u.D.D.D.D.D.D.D.D.D.D.D.`.`.R.D.D.D.D.D.D.D.D.D.u.D.R.R.D.D.u.q.q.%.R C t 5 ",
"9.u.u.D.D.D.D.D.R.D.D.D.R.D.`.R.`.R.D.D.D.D.D.D.D.D.D.D.R.R.D.D.D.u.u.%. .V t 5 ",
"q.u.u.D.D.D.`.R.R.D.D.D.R.D.R.`.`.`.R.D.D.n.n.D.D.D.D.D.D.D.D.D.D.u.u.>.%.C t : ",
"q.u.u.u.D.D.`.R.R.D.D.D.D.D.D.R.`.`.D.D.D.D.D.D.D.D.D.D.D.D.D.D.l.l.u.u.%.R t 5 ",
"q.u.u.u.D.D.D.n.D.D.D.n.n.D.D.R.D.R.D.D.D.D.D.D.n.D.D.D.D.D.D.D.l.l.u.u.u.` j 5 ",
"q.u.Q.u.D.D.D.D.D.D.D.D.D.D.R.R.D.D.D.D.D.D.D.D.R.D.n.D.D.D.D.n.D.l.u.u.u. .N 5 ",
">.u.~.u.D.D.D.l.h.D.D.D.D.D.D.n.D.D.D.D.D.D.D.D.D.n.7.n.D.D.D.n.W.D.u.q.q.O.N t ",
"q.u.u.u.D.D.D.D.D.D.I.R.D.D.D.D.D.D.D.D.l.D.D.D.D.D.D.n.D.D.D.D.l.l.u.3.0.%.V 7 ",
"%.u.D.u.n.D.D.D.n.D.D.D.D.D.D.D.D.D.D.7.3.7.D.D.D.D.n.n.D.D.D.D.D.Q.u.3.q.%.C g ",
"%.q.u.u.D.D.D.D.D.D.n.n.D.D.D.D.D.D.D.D.7.3.7.D.D.D.D.D.D.D.D.D.D.l.q.3.>.%.C g ",
"q.q.u.3.u.D.D.D.n.D.D.n.D.D.D.D.D.D.D.D.D.7.D.D.D.R.D.D.D.D.D.R.D.l.u.3.q.%.N t ",
"%.q.3.u.u.D.D.D.D.D.D.D.D.D.D.R.D.D.D.D.D.D.D.R.D.D.D.D.D.D.n.D.D.D.u.3.%. .N t ",
"%.q.3.u.3.D.D.D.D.D.D.D.D.D.D.D.D.D.D.D.D.D.R.R.D.D.D.D.D.D.n.n.W.D.3.3.%./ N 5 ",
"%.q.u.u.D.D.D.D.D.D.D.D.D.D.D.D.D.D.D.D.D.D.D.R.D.D.D.D.l.u.u.l.Q.l.u.q.%.R j 5 ",
" .%.u.D.D.D.D.D.D.D.D.D.D.D.D.D.h.3.3.g.D.D.D.n.n.D.D.~.l.l.3.u.D.l.u.q.%.L N 5 ",
"R %.u.W.D.D.D.D.D.D.D.D.D.D.D.D.~.u.u.u.u.D.D.D.).D.D.D.D.u.u.u.D.l.u.q.%.R ! t ",
"R %.u.D.D.R.R.R.D.~.~.D.n.D.D.n.~.u.u.u.u.D.D.D.).D.D.R.D.u.u.u.u.h.u.u.%.` ~ N ",
"R  .q.D.D.D.R.`.D.~.D.D.D.D.D.n.D.D.D.u.h.D.D.D.~.R.D.D.D.D.u.u.u.h.u.u.9.` ~ N ",
"R  .%.u.D.D.~.~.D.D.D.D.D.D.D.D.D.D.D.h.h.h.h.D.~.I.D.D.D.D.D.u.u.u.u.u.>.` N k ",
" . .%.u.~.D.D.D.D.D.R.R.D.D.D.D.D.D.D.D.n.n.n.D.D.D.D.D.D.D.~.D.l.u.u.3.l.>.L t ",
"%.%.%.u.D.D.R.D.D.D.D.R.D.D.R.R.D.l.l.D.D.D.D.D.D.D.D.D.D.D.D.D.u.u.u.u.h.%.C 9 ",
"%.q.u.u.u.D.~.~.D.D.D.D.D.R.R.R.D.n.l.l.D.D.D.n.D.D.D.D.D.D.D.D.l.u.u.q.>.Q p 5 ",
"%.u.3.u.D.D.D.D.D.n.D.D.D.R.R.D.D.D.D.l.D.D.D.D.D.D.D.D.D.D.D.D.l.u.u.%. .C t - ",
"%.%.u.u.Q.D.D.D.D.n.D.D.n.n.D.n.D.D.D.D.D.D.D.R.D.D.D.D.D.D.D.D.h.u.3.%.` N 5 = ",
"%.u.u.u.u.D.D.D.D.D.D.D.D.D.D.D.D.D.D.D.D.D.D.D.D.D.D.D.D.D.D.u.3.>.%.` / j - = ",
" .q.l.3.h.D.D.D.D.n.D.D.g.g.u.3.3.D.~.D.R.D.D.R.D.D.R.`.`.D.D.u.q.%.%.R C t = $ ",
"/ q.l.3.3.h.h.D.D.D.D.u.u.u.3.3.3.u.~.D.R.D.D.D.D.D.R.`.R.D.D.u.%.` R L N 5 = O ",
"t R %.%.>.q.u.u.l.l.h.u.u.u.u.u.u.l.D.D.D.D.D.D.D.n.D.D.n.D.u.u. .R C N t = = O ",
"9 p R %.q.3.3.u.u.u.u.u.u.u.>.>.u.u.3.u.u.l.l.l.g.u.u.7.h.u.u.%.` R N t - = @ O ",
"5 p C  .%.>.q.q.q.u.u.u.u.q.%.%.%.%.%.%.%.%.%.%.%.%.%.%.%.%. .R R R N t = . O   ",
"5 t N / %.%.%.9.%.q.u.u.q.%.%.%.%. .` R R L L / R ` ` R R R ` C R R N 6 @ O     "
};
