/* XPM */
static char *e756bb414cc34b9cefc31cd2e799b07b4Dx7CpXckQTr5g3Q[] = {
/* columns rows colors chars-per-pixel */
"40 40 197 2 ",
"   c #0E100F",
".  c #1B120B",
"X  c #171413",
"o  c #281C0E",
"O  c #251B12",
"+  c #2B1A12",
"@  c #26241E",
"#  c #272418",
"$  c #34241A",
"%  c #392618",
"&  c #342B1C",
"*  c #3C2A1C",
"=  c #3D2B15",
"-  c #2E2721",
";  c #312F22",
":  c #3C3423",
">  c #383227",
",  c #402917",
"<  c #4D2E19",
"1  c #43351D",
"2  c #493119",
"3  c #46381E",
"4  c #5F3A1F",
"5  c #56361A",
"6  c #6A391C",
"7  c #753F1D",
"8  c #402D29",
"9  c #4A2D27",
"0  c #443523",
"q  c #483624",
"w  c #4C3B24",
"e  c #433C2B",
"r  c #473B26",
"t  c #523623",
"y  c #513822",
"u  c #5A3D22",
"i  c #56392A",
"p  c #623E25",
"a  c #683E25",
"s  c #693828",
"d  c #414719",
"f  c #4A451D",
"g  c #684D1E",
"h  c #78401F",
"j  c #675A1C",
"k  c #5F601C",
"l  c #6D641D",
"z  c #7A7A18",
"x  c #767D1E",
"c  c #4C4224",
"v  c #564224",
"b  c #5B4323",
"n  c #584B21",
"m  c #53422E",
"M  c #5E442A",
"N  c #574A2C",
"B  c #4A5022",
"V  c #515620",
"C  c #5D5522",
"Z  c #4E4332",
"A  c #544531",
"S  c #5C4A33",
"D  c #5F483A",
"F  c #594335",
"G  c #634523",
"H  c #6D4225",
"J  c #694825",
"K  c #60422A",
"L  c #68452C",
"P  c #66482C",
"I  c #6C4C2C",
"U  c #734524",
"Y  c #7D4322",
"T  c #7A492C",
"R  c #75442C",
"E  c #6C5C22",
"W  c #63542C",
"Q  c #655325",
"!  c #71542A",
"~  c #7E5925",
"^  c #624A32",
"/  c #684C34",
"(  c #784F31",
")  c #6E5135",
"_  c #6B523C",
"`  c #785537",
"'  c #765C3C",
"]  c #7B5C3C",
"[  c #755232",
"{  c #6C632A",
"}  c #716423",
"|  c #7A6027",
" . c #746C2B",
".. c #7B7020",
"X. c #7F7D28",
"o. c #7A7727",
"O. c #7A603D",
"+. c #7F7132",
"@. c #7B6545",
"#. c #766144",
"$. c #8F461D",
"%. c #814722",
"&. c #914C2D",
"*. c #84572D",
"=. c #815928",
"-. c #8C572C",
";. c #90542C",
":. c #985A29",
">. c #945522",
",. c #885E3A",
"<. c #985935",
"1. c #A1572A",
"2. c #A75D2C",
"3. c #876827",
"4. c #827D26",
"5. c #8A7A25",
"6. c #8D633B",
"7. c #90663E",
"8. c #937434",
"9. c #A4662E",
"0. c #AC6C2F",
"q. c #A56A2E",
"w. c #B06F2F",
"e. c #AF6631",
"r. c #B87437",
"t. c #B87338",
"y. c #B27137",
"u. c #C77A34",
"i. c #CC7B32",
"p. c #C77B38",
"a. c #D07C33",
"s. c #826443",
"d. c #8B6741",
"f. c #8B6B45",
"g. c #93734A",
"h. c #9D754B",
"j. c #AF7148",
"k. c #A4794C",
"l. c #A57A56",
"z. c #C57747",
"x. c #75920C",
"c. c #79950E",
"v. c #7D990F",
"b. c #7D8418",
"n. c #7E9A11",
"m. c #7D9518",
"M. c #7F8525",
"N. c #838B1E",
"B. c #819D13",
"V. c #8E961F",
"C. c #859D1D",
"Z. c #8F9B1F",
"A. c #84941D",
"S. c #93971D",
"D. c #86A115",
"F. c #8BA516",
"G. c #8FA816",
"H. c #8DA619",
"J. c #8FA819",
"K. c #90AA17",
"L. c #92A51C",
"P. c #94AD1B",
"I. c #99AD1D",
"U. c #97B11D",
"Y. c #99B21D",
"T. c #9CBA1D",
"R. c #828625",
"E. c #838C24",
"W. c #8C8229",
"Q. c #8D8B23",
"!. c #928B25",
"~. c #958629",
"^. c #869223",
"/. c #8C9424",
"(. c #8B9B22",
"). c #869A21",
"_. c #929B25",
"`. c #989C25",
"'. c #939122",
"]. c #A48F36",
"[. c #8BA220",
"{. c #93A422",
"}. c #9AA225",
"|. c #95AB20",
" X c #98AE21",
".X c #99AD21",
"XX c #98A428",
"oX c #97B120",
"OX c #97B020",
"+X c #9AB220",
"@X c #9DB520",
"#X c #9BB320",
"$X c #9DB921",
"%X c #A0B721",
"&X c #A0B922",
"*X c #CF8139",
"=X c #DC8435",
/* pixels */
"n.B.D.F.F.F.H.H.J.J.H.H.F.K.K.K.F.D.F.F.F.D.F.F.F.F.F.F.J.H.H.F.F.F.D.B.n.v.v.x.",
"n.D.D.F.F.J.K.K.K.K.K.K.J.K.K.K.J.F.D.F.F.F.J.H.H.F.F.J.J.J.K.K.J.F.F.D.B.n.c.x.",
"B.D.D.F.J.K.K.P.P.P.P.P.P.P.P.P.K.K.J.H.H.K.K.J.J.J.J.K.J.G.K.K.K.J.F.D.D.n.v.v.",
"B.D.F.J.K.K.P.P.P.P.P.U.U.U.U.U.P.P.P.J.K.P.P.P.K.K.K.K.K.J.K.P.K.K.J.F.D.B.v.x.",
"F.J.K.K.K.K.P.P.U. XU.U.U.U.U.+X@XT.I.U.P.P.U.U.P.P.P.P.P.K.K.P.P.K.K.F.D.B.n.v.",
"K.P.P.P.P.P.P.P.U.U.U.U.+XU.Y. X}.}.T.'.I.T.^..XU.P.U.U.P.P.P.P.P.P.K.K.J.D.n.v.",
"P.P.P.P.U.U.P.U.U.U.U.U.+XU.@XP.W.R Q.3.!.4.G Z.Y.P.U.U.U.P.P.P.P.P.K.U.oXF.n.v.",
"P.P.U.P.P.+XU.U.U.U.+XU.U.U.&X X~ Y R R T s i b.T.U.U.U.U.U.P.P.P.P.K.K.H.D.B.n.",
"P.P.U.+XU.U.U.U.U.U.U.U.+XY. XW.7 U U T H L F l T.U.U.U.Y.oXoXU.P.P.K.K.J.D.B.n.",
"P.P.P.U.U.U.U.U.U.Y.U.U.U.T.S.H w u U U 6 [ _ Q P.U.U.U.%X$XU.U.P.P.P.K.J.D.B.n.",
"P.P.P.U.Y.Y.U.Y.Y.+XU.U.U.T./.o.N A m t 4 f.s.W L.U.U.U.@XY.U.U.P.P.P.P.K.D.B.n.",
"P.P.P.P.U.U.Y.&X+XY.U.Y.U.T./.} e : : Z N k.l.{ Y.U.U.Y.I.U.U.U.U.U.P.P.K.F.B.n.",
"K.P.P.U.U.U.U.Y.Y.U.U.U.U.Y.V.y 0 : 0 e S d.,.! I.@XU.U.U.Y.U.U.U.U.U.P.K.F.B.n.",
"K.P.P.P.I.U.U.U.U.U.U.U.I.Y.4.% 5 G q > m p ;.s z T.I.U.U.U.U.Y.U.U.P.P.P.J.B.n.",
"P.P.P.P.U.U.U.P.U.U.U.U.U..Xn o . 2 = # r ;.;.^ g @XU.U.U.#XU.U.U.U.P.P.P.J.D.n.",
"P.P.P.U.U.U.U.U.U.I.U.U.Y.o.* O O O 5 $.%.&.( #.t Z.Y. XU.U.Y.Y.U.U.P.P.P.H.F.n.",
"K.P.P.P.U.U.U.U.U.U.$XT.^.v O O $ % w 2.1.h ) @.t b.T.P.U.+XU.U.U.U.U.P.P.K.D.n.",
"K.P.P.P.U.U.U.U.U.U.U.`.{ , 2 & & % 0 J Y a s.@.D j T.P.+XU.U.Y.U.U.P.P.P.K.F.n.",
"K.K.P.P.U.U.U.U.Y.P.Y.!.<.t.y.! : q % p Y / g.O.A q N.T.U.U.U.U.P.P.P.P.P.K.F.n.",
"P.P.P.P.P.U.U.U.U.U.Y.C.5.~.C *.: Z w 6 H ' ' ' ' c E ..Y.I.U.U.U.U.P.P.P.K.D.n.",
"P.P.P.P.U.U.U.U.U.U.U.P./.B X M 0 e S K M ] ) h.l.W XXE.P.U.U.Y.+XU.P.P.K.J.D.n.",
"K.P.P.P.P.U.U.U.U.U.Y.H._.f   M v ; A ^ d.d.5 h.h.N H.(.P.U.U.U.U.P.P.P.K.J.D.n.",
"K.K.P.U.P.U.U.U.I.U.Y.L._.V X & 1 & e / 6.` < h.g.L E x U.P.P.Y.U.P.P.P.J.F.D.n.",
"J.P.P.U.#XU.U.U.U.U.Y.K.E.|.d X b 3 ; ^ ] ,.>.p.7.I T } T.P.P.+XU.U.P.K.J.F.D.n.",
"H.K.P.U.U.U.U.U.U.U.+XT.(..XH.# u q.1 P r.i.a.i.w.*.8.R.U.P.P.P.U.U.P.P.K.H.F.B.",
"J.K.P.U.U.U.Y.T.Y.Y.U.T.{..XY.C @ =.i.u.=X=X0.0.:.I +.P.U.P.U.U.U.P.U.P.K.J.D.B.",
"F.J.P.U.U.Y.Y.Y.U.U.+XY.I.P.Y._./ @ 9.p.*Xu.;.-.4.u z.`.Y.P. XP.U.P.U.U.P.J.F.B.",
"H.J.K.P.U.+X+XU.Y.Y.U.U.Y.+XT./.i & l 9.e.3.l j A.* j.].Y.Y.U.U.U.P.P.P.K.H.F.B.",
"K.K.K.U.U.U.U.U.Y.U.U.U.U.+XY.(.q $ m.| } H.Y. X).1 9  .T.U.U.U.U.P.P.P.U.P.F.B.",
"K.K.K.P.U.U.U.U.U.U.@XU.U.U.U.P.c - C.M.{.T.U.Y.Y.[.N.H.Y.U.U.oXP.P.P.P.+XP.F.B.",
"K.P.P.P.U.U.Y.U.U.Y.U.Y.Y.Y.&XT.R.8 C.{.P.Y.+XU.U.Y.T.Y.U.U.U.U.U.P.P.P.J.F.D.n.",
"P.P.P.P.U.U.U.Y.U.U.U.U.U.+XU.T.A.f {.L. XU.U.U.+XU.U.+XU.U.Y.U.U.P.P.K.K.F.B.v.",
"K.P.P.P.P.U.U.U.U.U.U.U.Y.Y.U.Y.U.Y.Y.U.U.U.U.Y.U.U.U.@XU.U.U.U.U.P.P.K.J.D.n.v.",
"J.K.P.P.P.U.U.Y.U.U.U.U.U.U.U.U.U.U.U.U.U.U.U.U.Y.U.U.U.U.U.U.P.P.P.K.H.H.D.v.v.",
"H.U.Y.P.P.U.U.U.U.U.U.I.U.U.U.P.U.+XU.+XU.U.U.U.U.U.U.&XY.U.U.P.K.K.K.H.F.B.v.x.",
"F.P.U.P.P.U.U.U.U.U.I.P.P.P.P.P.K.P.U.U.Y.U.U.U.U.U.Y.@XY.Y.U.P.K.H.H.F.B.n.v.x.",
"B.F.K.P.P.P.U.U.U.U.P.P.P.P.P.P.P.U.U.U.U.U.U.U.U.U.U.U.U.U.U.P.K.J.F.D.B.v.x.x.",
"B.D.H.K.P.P.P.P.P.P.P.P.P.P.K.K.P.P.P.U.U.U.U.U.U.P.P.U.U.P.P.K.F.H.D.n.v.v.x.x.",
"v.B.F.J.P.P.P.P.P.P.P.P.P.P.K.K.K.K.K.K.K.K.P.P.K.K.K.K.K.K.K.J.F.H.F.n.c.c.x.x.",
"v.n.D.F.J.K.P.K.K.K.P.P.P.P.K.K.J.J.H.H.F.J.F.F.F.F.H.H.H.H.F.F.F.H.F.n.c.x.x.x."
};
