/* XPM */
static char *a28bb53bd0f348b1b8feb016ad277db3Xnb0RQrugiudVMwg[] = {
/* columns rows colors chars-per-pixel */
"40 40 163 2 ",
"   c #64696F",
".  c #656D70",
"X  c #686F77",
"o  c #6B6F78",
"O  c #75920C",
"+  c #79950E",
"@  c #7D990F",
"#  c #7C9712",
"$  c #7E9A11",
"%  c #819D13",
"&  c #94AE0E",
"*  c #95B10F",
"=  c #86A115",
"-  c #8BA516",
";  c #8DA913",
":  c #8CA618",
">  c #8FA819",
",  c #93AC15",
"<  c #94AD1B",
"1  c #99AF1C",
"2  c #96B113",
"3  c #99B215",
"4  c #97B01D",
"5  c #99B21D",
"6  c #9FB81F",
"7  c #98AF22",
"8  c #97B120",
"9  c #9AB221",
"0  c #9FB920",
"q  c #97B12A",
"w  c #9BB12B",
"e  c #9CB232",
"r  c #9AB23D",
"t  c #A1BB22",
"y  c #A2B734",
"u  c #99AF40",
"i  c #9DAE4B",
"p  c #9CB145",
"a  c #9CB24C",
"s  c #A0B343",
"d  c #A1B34C",
"f  c #A3B355",
"g  c #A8BA56",
"h  c #A5B45B",
"j  c #A3BA52",
"k  c #ABBA64",
"l  c #AEBA6B",
"z  c #A5AE7C",
"x  c #ABB777",
"c  c #AFBC76",
"v  c #A7B17C",
"b  c #B0BC77",
"n  c #B1BD7A",
"m  c #B0C254",
"M  c #B1C35F",
"N  c #BAC873",
"B  c #82878B",
"V  c #858A8E",
"C  c #8A8F93",
"Z  c #8F929C",
"A  c #929397",
"S  c #93959A",
"D  c #ABB380",
"F  c #B4B886",
"G  c #B9B78E",
"H  c #B6BD8C",
"J  c #ABB291",
"K  c #B2B693",
"L  c #B6BE95",
"P  c #B0B39E",
"I  c #BAB699",
"U  c #B7BE99",
"Y  c #A5A7A6",
"T  c #A7A9A4",
"R  c #A2A6A9",
"E  c #A5A9AB",
"W  c #AAABAC",
"Q  c #B2B4A6",
"!  c #BCB7A1",
"~  c #B9BEA0",
"^  c #B5B6AC",
"/  c #AAACB1",
"(  c #AEACBA",
")  c #B0AEB9",
"_  c #B5B6B4",
"`  c #BCBDB7",
"'  c #B6B5BA",
"]  c #BBBDBF",
"[  c #C4B9A7",
"{  c #C7BAAA",
"}  c #C8BAAD",
"|  c #CEBCB3",
" . c #D4BCB0",
".. c #D0BBB8",
"X. c #DABCB4",
"o. c #FFA5B4",
"O. c #B7C286",
"+. c #BDC884",
"@. c #B7C18F",
"#. c #BCC58E",
"$. c #B7C095",
"%. c #B8C097",
"&. c #BBC0A0",
"*. c #C1CF84",
"=. c #C0C897",
"-. c #C1C9A0",
";. c #CCD2AE",
":. c #C1C4B1",
">. c #C9CDB4",
",. c #D5C0BF",
"<. c #CED3B9",
"1. c #BEBFC1",
"2. c #BBBCC1",
"3. c #D8BEC5",
"4. c #D3BBCA",
"5. c #DFBDCB",
"6. c #D5BCC2",
"7. c #E2BECF",
"8. c #E5BFCE",
"9. c #FCBEC9",
"0. c #FABDC5",
"q. c #E4BFD0",
"w. c #BFC0C2",
"e. c #C2C4C2",
"r. c #C3C4C3",
"t. c #C4C4CD",
"y. c #C8C7CB",
"u. c #C5C8CF",
"i. c #C9CACA",
"p. c #D9C5C7",
"a. c #DDC4C8",
"s. c #D4D7CE",
"d. c #C7C7D2",
"f. c #C6C6D2",
"g. c #C8C6D1",
"h. c #CDCCDB",
"j. c #D8D9D3",
"k. c #D7D6DE",
"l. c #DBDADE",
"z. c #E6C0CF",
"x. c #F9C3DA",
"c. c #FEC6DA",
"v. c #FEC6DD",
"b. c #FAC4DB",
"n. c #DFE1DC",
"m. c #F0F6DA",
"M. c #DFDEE3",
"N. c #D7D6E8",
"B. c #FFC6E3",
"V. c #E7E7E7",
"C. c #E3E3E3",
"Z. c #E6E9E7",
"A. c #E6E6EB",
"S. c #EEEFEF",
"D. c #F0F1EF",
"F. c #F9FDEF",
"G. c #E4E2F0",
"H. c #ECEEF2",
"J. c #E9F1F3",
"K. c #F5F5F5",
"L. c #FBFBF5",
"P. c #F2F0FB",
"I. c #FDFDFE",
/* pixels */
"$ % = - - - : : : > - : : > < > = = = = = - - = - : > - : > - - = = = % $ @ @ O ",
"$ = = - - > < < < < < , > < < > > - - - = : : : : - : > > > , > > = - = % $ + O ",
"% = = - > < < < < , < < < < , < < < > : : < , ; > > > > > : < < , > = = % $ @ @ ",
"% = - > < < < < < < < < 4 4 d 9 < < < , < < < i < < < < < : < < < < > = = % # O ",
"= > < < < < < < 5 4 5 5 5 9 ^ h 3 9 9 < < , f _ 8 < < < < > < < < < < - = % $ @ ",
"< < < < < < < < 5 5 5 9 3 w _ Q 9 6 4 5 1 < P ' e , 5 4 < < < < < < < < > = $ @ ",
"< < < < 4 4 < 4 5 9 5 5 5 r 6.4.a 3 9 8 2 a 4.3.u , 5 4 5 < < < < < < 5 8 - $ @ ",
"< < 4 < < 5 4 4 5 5 5 5 3 p 8.x.D 2 8 5 2 v x.z.p 2 5 5 5 5 < < < < < < : = % $ ",
"< < 4 5 5 5 5 5 5 5 5 5 3 p 7.c.! 4 5 9 4 I c.q.a 3 9 5 5 5 < < < < < < > = % $ ",
"< < < 4 5 5 5 5 5 9 5 9 3 r 5.v.{ 8 9 9 4 [ v.7.p 5 5 5 9 9 5 4 < < < < > = % $ ",
"< < < 4 5 5 5 5 5 5 5 9 5 q | v.| 2 * , 2 } v...q 5 4 5 6 5 5 5 < < < < > = % @ ",
"< < < < 5 5 6 t 5 9 5 5 9 2 F B.X.j n n d  .B.G 2 5 9 5 < 5 5 5 5 4 < < < - % $ ",
"< < < < 5 5 5 5 9 5 5 5 5 2 f x.a.t.d.g.t.p.b.h 2 9 5 5 5 5 5 5 5 4 4 < < - % $ ",
"< < < < < 5 5 4 5 5 5 5 9 5 w ,.y.e.i.i.e.y.3.w 5 9 5 5 5 5 5 5 4 4 < < < > % $ ",
"< < < < 5 5 5 < 5 4 5 5 5 5 2 L d.1.V.V.1.u.U 2 9 5 5 5 5 5 5 5 4 4 < < < > = $ ",
"< < < < 5 5 5 5 5 4 5 5 5 9 3 H t.e.K.K.r.t.$.2 9 4 5 5 5 9 5 5 4 5 < < < : = $ ",
"< < < < 5 5 5 4 4 5 0 5 5 9 5 U A.C.I.I.C.V.~ 5 9 5 4 5 5 9 5 5 4 4 4 < < < = $ ",
"< < < < 5 5 5 5 4 5 5 5 5 5 , <.Z R I.I.R Z <.< 5 5 4 5 5 5 5 5 4 4 < < < < = $ ",
"< < < < 4 5 5 5 5 4 < 5 5 5 7 s.o B I.I.V X j.w 5 9 5 5 5 5 5 5 < < < < < < = $ ",
"< < < < < 5 5 5 5 9 5 5 9 2 s k.S / I.I./ S l.s 3 9 5 5 5 5 5 5 4 4 < < < < = $ ",
"< < < < 4 5 5 5 5 5 5 5 9 * k h.n.K.o.o.K.C.h.l 2 9 5 5 5 4 4 5 5 4 < < < > = $ ",
"< < < < < 5 5 5 4 5 5 9 9 2 O.I.L.I.0.9.I.K.I.#.3 9 5 5 4 4 < 5 4 < < < < > = $ ",
"< < < 4 < < 5 5 5 5 5 5 9 , =.I.I.I.J.H.I.I.I.-.2 9 5 5 4 < < 5 4 < < < > - = $ ",
"> < < 5 5 5 5 5 5 5 5 5 9 3 H I.D.V.M.l.Z.K.I.@.& 5 5 9 5 < < < 4 4 < < > - = $ ",
": < < 5 5 5 5 5 5 5 5 5 5 2 h G.I.A E E C I.C.^ ;.y 5 5 5 < < < 5 5 < < , : - % ",
"> < < < 5 5 6 6 5 5 5 9 5 5 5 &.I.D..   S.L.w.W N.N & 9 5 < < 4 5 < 4 < < > = % ",
"- > < 4 5 5 6 6 5 5 5 5 5 5 5 w :.P.I.K.S.r./ Y t.*., 9 5 5 4 < 4 < 4 4 < > = % ",
": > < < 5 9 9 5 5 9 5 5 9 5 9 5 b l <.V.+.K ) T t.M 2 9 5 5 5 4 4 < < < < : = % ",
"> > < < 5 5 5 5 5 9 5 5 9 5 9 5 %.M m.F.m ` R / J 5 5 5 5 5 5 5 4 < < < 4 < = % ",
"< < < < 5 5 5 5 5 5 5 5 5 5 5 3 L k.I.L.>.] Y ( z 2 5 5 5 5 5 5 < < < < 9 < = % ",
"< < < < 4 5 5 5 5 5 9 5 9 6 t 3 H t.Z.H.t.] W ( z 2 5 5 5 5 5 5 4 < < < < - = $ ",
"< < < < 4 5 5 5 5 5 5 5 5 5 9 2 n d.r.e.r.2./ W p 5 5 4 9 5 5 5 5 < < < < - % @ ",
"< < < < < 5 5 4 5 5 5 5 5 5 5 2 g h.t.t.h.x i e 5 5 5 5 5 5 5 4 5 < < < > = $ @ ",
"> < < < < 5 5 5 5 5 5 5 5 5 5 5 9 c k k b 5 2 5 9 5 5 9 5 5 5 < < < < : : = @ O ",
": 5 5 < < 4 5 5 5 5 5 5 4 4 < < 4 , 3 2 2 9 9 5 5 5 5 9 6 5 5 < < < > : - % @ O ",
"= < 4 < < 4 5 5 5 5 7 < < 4 < < < < 9 5 9 5 5 9 5 5 5 6 6 5 5 < < : : - % $ @ O ",
"% - < < < < 4 4 4 4 < < < < < < < 4 5 9 5 5 5 5 5 5 5 5 5 5 5 < > > = = % @ @ O ",
"% = : < < < < < < < < < < < < < < < < < 5 < 5 5 4 4 < 5 5 < < < - : = $ @ @ O O ",
"@ % = > < < < < < < < < < < < < < < < < < < < < < < < < < < > : - : = $ + + O O ",
"@ $ = - > < < < < < < < < < < < : > : : - - - : - - : : - > - = - : = $ + O O O "
};
