/* XPM */
static char *aaef62cde8b84689fb815c2ce8c0b44ajVH7xhe3MlvZ7eET[] = {
/* columns rows colors chars-per-pixel */
"40 40 201 2 ",
"   c #03291C",
".  c #093624",
"X  c #083B28",
"o  c #093A27",
"O  c #06452C",
"+  c #0A422B",
"@  c #07482A",
"#  c #0C4B2D",
"$  c #154F29",
"%  c #0E562E",
"&  c #084631",
"*  c #0C4D32",
"=  c #024B30",
"-  c #0D5433",
";  c #065B33",
":  c #0D5C35",
">  c #065A39",
",  c #0E5C3A",
"<  c #0E573C",
"1  c #105C34",
"2  c #125C3B",
"3  c #115431",
"4  c #275426",
"5  c #205A31",
"6  c #076237",
"7  c #0D6339",
"8  c #0F6A3F",
"9  c #0A6638",
"0  c #116234",
"q  c #146A33",
"w  c #11623C",
"e  c #136C39",
"r  c #1D6132",
"t  c #09793F",
"y  c #12723E",
"u  c #21612F",
"i  c #2C672F",
"p  c #256D2E",
"a  c #296F33",
"s  c #216C34",
"d  c #337931",
"f  c #297439",
"g  c #487529",
"h  c #577E21",
"j  c #0F6643",
"k  c #0E6A43",
"l  c #146542",
"z  c #126C42",
"x  c #126C49",
"c  c #0E7144",
"v  c #0D7945",
"b  c #137442",
"n  c #137B45",
"m  c #14754D",
"M  c #127B4A",
"N  c #157E53",
"B  c #15823F",
"V  c #3E872D",
"C  c #358337",
"Z  c #35953C",
"A  c #75920C",
"S  c #79950E",
"D  c #7D990F",
"F  c #7E9A11",
"G  c #7C9712",
"H  c #4D8F2E",
"J  c #51882B",
"K  c #59932D",
"L  c #46943E",
"P  c #569A34",
"I  c #618C2A",
"U  c #63952B",
"Y  c #749824",
"T  c #649F35",
"R  c #5EAA3E",
"E  c #7CA125",
"W  c #72A22A",
"Q  c #77AE2D",
"!  c #7DB22E",
"~  c #67AE34",
"^  c #73AF33",
"/  c #6FB636",
"(  c #6FB03C",
")  c #67B73D",
"_  c #7AB831",
"`  c #74B938",
"'  c #08844E",
"]  c #098447",
"[  c #148447",
"{  c #188743",
"}  c #14824C",
"|  c #148D4D",
" . c #188D4C",
".. c #148841",
"X. c #0C9047",
"o. c #0E954B",
"O. c #129546",
"+. c #13954D",
"@. c #19954F",
"#. c #19994F",
"$. c #179A4C",
"%. c #0A8E5D",
"&. c #148651",
"*. c #148B53",
"=. c #198A55",
"-. c #198551",
";. c #0A9252",
":. c #0E9D55",
">. c #0E9D5D",
",. c #159355",
"<. c #189657",
"1. c #159D53",
"2. c #199A51",
"3. c #16925B",
"4. c #149B5D",
"5. c #19965C",
"6. c #269E47",
"7. c #249953",
"8. c #0FAB57",
"9. c #12A352",
"0. c #19A555",
"q. c #16AC56",
"w. c #19A859",
"e. c #17A55A",
"r. c #16B55A",
"t. c #1AB25C",
"y. c #15BC5F",
"u. c #1DB85B",
"i. c #15B257",
"p. c #37A647",
"a. c #3CAA49",
"s. c #3DA54E",
"d. c #3EB84B",
"f. c #2AA956",
"g. c #2DB556",
"h. c #199F60",
"j. c #16A363",
"k. c #1AA267",
"l. c #1AAB65",
"z. c #1DAE69",
"x. c #1ABE63",
"c. c #19B46A",
"v. c #1BB572",
"b. c #24B568",
"n. c #4CA941",
"m. c #57AB42",
"M. c #44B249",
"N. c #53B745",
"B. c #47B254",
"V. c #59BA51",
"C. c #1BC85F",
"Z. c #3FC95C",
"A. c #16C163",
"S. c #1ED969",
"D. c #12CC78",
"F. c #10D272",
"G. c #22C463",
"H. c #20DD7F",
"J. c #23E06C",
"K. c #50C250",
"L. c #4ACB57",
"P. c #62C544",
"I. c #819D13",
"U. c #86A115",
"Y. c #8BA516",
"T. c #8CA816",
"R. c #8CA619",
"E. c #8EA819",
"W. c #92AA17",
"Q. c #90A718",
"!. c #94AD1B",
"~. c #9CAF1B",
"^. c #98A915",
"/. c #96B01D",
"(. c #99B11D",
"). c #99B11F",
"_. c #99B31E",
"`. c #9AB21E",
"'. c #9AB21D",
"]. c #9DB21E",
"[. c #9EB51E",
"{. c #99B21D",
"}. c #9FB81F",
"|. c #A1AF1A",
" X c #A2B317",
".X c #A2B31A",
"XX c #A5B91C",
"oX c #8CAF23",
"OX c #80AF2D",
"+X c #86AC25",
"@X c #94AF20",
"#X c #8BB125",
"$X c #86B62C",
"%X c #96B220",
"&X c #96B221",
"*X c #99B221",
"=X c #9BB320",
"-X c #9EB821",
";X c #94B628",
":X c #80B330",
">X c #A0BA21",
/* pixels */
"F I.U.Y.Y.Y.R.R.T.E.T.Y.R.E.Q.E.Y.U.U.Y.U.Y.Y.Y.R.E.Y.Y.R.R.R.E.Y.Y.U.I.F D D A ",
"F U.U.Y.Y.E.Q.Q.Q.Q.Q.Q.Q.Q.Q.Q.E.Y.Y.Y.Y.Y.Y.R.R.Y.E.R.E.Q.Q.Q.E.Y.Y.U.I.F S A ",
"I.U.U.Y.E.Q.Q.!.!.!.!.!.!.!.!.!.Q.Q.^.R.T.W.E.E.T.E.E.Q.E.E.Q.Q.W.E.Y.U.U.F D D ",
"I.U.Y.E.Q.Q.!.!.!.!.!.(././.(./.!.!.K.g.a.OX^.Q.Q.Q.Q.Q.Q.Q.Q.Q.Q.Q.E.Y.U.I.G A ",
"Y.E.Q.Q.Q.!.!.!.*X/.(.(.(.(.(..XXXL.F.x.:.g.$X/.@X!.!.!.!.Q.Q.!.!.Q.Q.Y.U.I.F D ",
"Q.!.!.!.!.!.!./.*X(.(.[.*X*X].) a.r.t.+.w.q.r.m.~.!.(././.!.!.!.!.!.Q.Q.E.U.F D ",
"!.!.!.!././.!./.(.(.].(.*X.X$XG.' +.t.} +. .q.1.^ ~././.~./.!.!.!.!.Q.(.&XY.F D ",
"!.!./.!./.*X/./.(.(.(./.(.].;Xf.x.1.1.1.w.t.$.:.R .X&X(.(.(.!.!.!.!.Q.Q.R.U.I.F ",
"!.!./.*X(.(.(.(.(.(.(.(./. XV.D.J.1.S.t.+.x.x.t.b.(  X/./././.!.!.!.Q.Q.E.U.I.F ",
"!.!.!./.(.(.(.(.(.(.(.(..X_ r.r.0.b 1.| n i.S.G.' s.[.(.[.-X/./.!.!.!.!.E.U.I.F ",
"!.!.!./.(.(.(.(.(.(._.].$Xu.C.u.,.| | b +.2.n [ q X.^  X[.=X(./.!.!.!.Q.E.Y.I.D ",
"!.!.!.!.(.(.[.>X[.*X/..X/ y.0.w.l.0. .[ +.+.n ..{ O.6.#X(./.(.(.(./.!.!.Q.Y.I.F ",
"Q.!.!./.(.(.(.[.(.(.(.|.P.r.} z.v.<.n } : +.&.y e B X.^ ]./.(.(.(././.!.Q.Y.I.F ",
"Q.!.!.!.!.(.(./.(.(.(.(.Z.9.,.k.v.l.n ,.k b N j b q O.~ .X/.(.(././.!.!.!.E.I.F ",
"!./.!./.(.(.(.!.!././..XM.;.c.3.k.5.&.l.*.k m : , e o.p.(.(.(.(././.!.!.!.E.U.F ",
"!.!./.(.(.(.(././.!.!..XL >.c.l , 3.H.M , M } # 7 ] Z n.&X(.*X(./.(.!.!.!.R.Y.F ",
"Q.!.!.!.(.(.(.(./.(.>X;X7.e.-.< k c.l.O < n - . y t P #XoX].(.(./././.!.Q.Q.U.F ",
"Q.!.!.!.(.(.(.(././..X` 4.2 m x *.4.c j z < O - 0 O W  X(.(.(.*X/./.!.!.!.Q.Y.F ",
"Q.Q./.!./.(.(.(.(.!.~.:Xc.M =.x m 3.M M b , # - # # K /.(.[.(.(.!.!.!.!.Q.Q.Y.F ",
"!.!.!.!.!.(.(.(.(.&X~.! B.=.*.*.x l z M 7 w , 1 - # k T .X/.(.(././.!.!.!.Q.U.F ",
"!.!.!.!./.(.(.(./.(.(./..Xm.%.=.h.5.z - - c 8 2 z w > J .X!./.(.*X/.!.!.Q.E.U.F ",
"Q.!.!.!.!.(.(.(.(.(.*X].) f.3.w 3.M j.c : z : - - 1 & p [.!./.(./.!.!.!.Q.E.U.F ",
"Q.Q.!./.!.!.(.(.(.(.&X.XM.;.z 2 w X 5.j.z , . - 0 % , r oX/.!.(./.!.!.!.E.Y.U.F ",
"E.!.!.(.(.(.(.(.(.(.(./.a.i.@. .b * 2 4.w # w e : 3 ; d [.!.!./././.!.Q.E.Y.U.F ",
"R.!.!.(.(.(.(.(./.(.(.].M.8.#.w.t.b . }   . b - # # 6 C (./.!.!.(.(.!.!.W.R.Y.I.",
"E.Q.!.(.(.(.[.}.*X(.(..XN.A.b *.t.M + + # + w - - e 9 H .X!.!.!.(.!./.!.Q.E.U.I.",
"Y.E.!./.(.(.[.[.(.(.&X.Xd.y.n &., m < < M % 0 7 1 0 ; V .X!.(././.!././.!.E.Y.I.",
"R.E.Q.!.(.*X*X(.(.[./..XP 9.b <.# z * - : - # : - 0 : K XX/./././.!.!.!.Q.R.Y.I.",
"E.E.Q./.(.(.(.(.(.].(.].+X2.n <.b + + + # . o 7 u : s E [.(.(.(./.!.!.!./.!.Y.I.",
"Q.Q.Q.!.(.(.(.(.(.(.&X].Q 9.v } c O X O = @ $ > J Y E ].(.(.(.&X!.!.!.!.*X!.Y.I.",
"Q.!.!.!./.(.(.(./.(.(.].&X! U g f - # 5 4 # 4 a Y XX(./.(.*X(.*X/.!.!.!.E.Y.U.F ",
"!.!.!.!./.(.(.(.(.(.~.(.(..XXX~.W U i I .Xg h !.(.(././.(.(.(.(.(.!.!.Q.Q.Y.I.D ",
"Q.!.!.!.!.(.(./.(.(.(.(.(.(.(.[.(.XXI E [.(.'.].(.(.(.(.(.(.(./.(.!.!.Q.E.U.F D ",
"E.Q.!.!.!.(.(.(.(.(.(.(.(.(.(.(.(./.[.=X(.(.*X(.(.(.(.(.(.(.(.!.!.!.Q.R.R.U.D D ",
"R.(.[.!.!./.(.(.(.(.(.!.!.(.!.!./.(.(.[.(.(.*X*X(.(.(.=X[.(.(.!.Q.Q.E.R.Y.I.D A ",
"Y.!./.!.!./.(.(.(.(.(.!.!./.!.!.!.!.*X(.[.(.*X(.(.(.(.=X[.(.(.!.Q.R.R.Y.I.F D A ",
"I.Y.Q.!.!.!./././././.!.!.!.!.!.!.(.(.(.(.(.(.(.(.(.(.(.(.(.(.!.E.E.Y.U.I.D S A ",
"I.U.R.Q.!.!.!.!././.!.!.!.!.Q.!.!.!././.&X(.(.(.(./.!.(.(.!.!.Q.Y.R.U.F D D A A ",
"D I.Y.E.!.!.!.!.!.!.!.!.!.!.Q.Q.W.Q.!.Q.Q.Q.E.Q.!.Q.!.Q.Q.Q.E.E.Y.R.Y.F S S A A ",
"D F U.Y.E.Q.!.Q.Q.Q.!.!.!.!.Q.Q.E.E.R.Y.Y.Y.Y.R.Y.Y.R.R.Y.Y.Y.Y.Y.R.Y.F S A A A "
};
